<svg xmlns="http://www.w3.org/2000/svg" viewBox="0 0 396 54.852"><defs><style>.code-v{fill:#1e2969}</style></defs><g id="Group_449" data-name="Group 449" transform="translate(-6103 -5182.465)"><g id="Group_434" data-name="Group 434" transform="translate(4894 4182.465)"><path id="Rectangle_197" data-name="Rectangle 197" class="code-v" transform="translate(1209 1000)" d="M0 0h15v54.852H0z"/><path id="Rectangle_198" data-name="Rectangle 198" class="code-v" transform="translate(1231 1000)" d="M0 0h6v54.852H0z"/><path id="Rectangle_199" data-name="Rectangle 199" class="code-v" transform="translate(1243 1000)" d="M0 0h3v54.852H0z"/><path id="Rectangle_200" data-name="Rectangle 200" class="code-v" transform="translate(1252 1000)" d="M0 0h8v54.852H0z"/><path id="Rectangle_201" data-name="Rectangle 201" class="code-v" transform="translate(1267 1000)" d="M0 0h17v54.852H0z"/><path id="Rectangle_202" data-name="Rectangle 202" class="code-v" transform="translate(1290 1000)" d="M0 0h7v54.852H0z"/><path id="Rectangle_203" data-name="Rectangle 203" class="code-v" transform="translate(1304 1000)" d="M0 0h5v54.852H0z"/><path id="Rectangle_204" data-name="Rectangle 204" class="code-v" transform="translate(1316 1000)" d="M0 0h10v54.852H0z"/><path id="Rectangle_205" data-name="Rectangle 205" class="code-v" transform="translate(1333 1000)" d="M0 0h8v54.852H0z"/><path id="Rectangle_206" data-name="Rectangle 206" class="code-v" transform="translate(1348 1000)" d="M0 0h4v54.852H0z"/><path id="Rectangle_207" data-name="Rectangle 207" class="code-v" transform="translate(1358 1000)" d="M0 0h4v54.852H0z"/><path id="Rectangle_208" data-name="Rectangle 208" class="code-v" transform="translate(1368 1000)" d="M0 0h12v54.852H0z"/><path id="Rectangle_209" data-name="Rectangle 209" class="code-v" transform="translate(1386 1000)" d="M0 0h9v54.852H0z"/><path id="Rectangle_210" data-name="Rectangle 210" class="code-v" transform="translate(1401 1000)" d="M0 0h3v54.852H0z"/><path id="Rectangle_211" data-name="Rectangle 211" class="code-v" transform="translate(1410 1000)" d="M0 0h15v54.852H0z"/><path id="Rectangle_212" data-name="Rectangle 212" class="code-v" transform="translate(1432 1000)" d="M0 0h6v54.852H0z"/><path id="Rectangle_213" data-name="Rectangle 213" class="code-v" transform="translate(1444 1000)" d="M0 0h3v54.852H0z"/><path id="Rectangle_214" data-name="Rectangle 214" class="code-v" transform="translate(1453 1000)" d="M0 0h8v54.852H0z"/><path id="Rectangle_215" data-name="Rectangle 215" class="code-v" transform="translate(1468 1000)" d="M0 0h17v54.852H0z"/><path id="Rectangle_216" data-name="Rectangle 216" class="code-v" transform="translate(1491 1000)" d="M0 0h7v54.852H0z"/><path id="Rectangle_217" data-name="Rectangle 217" class="code-v" transform="translate(1505 1000)" d="M0 0h5v54.852H0z"/><path id="Rectangle_218" data-name="Rectangle 218" class="code-v" transform="translate(1517 1000)" d="M0 0h10v54.852H0z"/><path id="Rectangle_219" data-name="Rectangle 219" class="code-v" transform="translate(1534 1000)" d="M0 0h8v54.852H0z"/><path id="Rectangle_220" data-name="Rectangle 220" class="code-v" transform="translate(1549 1000)" d="M0 0h4v54.852H0z"/><path id="Rectangle_221" data-name="Rectangle 221" class="code-v" transform="translate(1559 1000)" d="M0 0h4v54.852H0z"/><path id="Rectangle_222" data-name="Rectangle 222" class="code-v" transform="translate(1569 1000)" d="M0 0h12v54.852H0z"/><path id="Rectangle_223" data-name="Rectangle 223" class="code-v" transform="translate(1587 1000)" d="M0 0h9v54.852H0z"/><path id="Rectangle_224" data-name="Rectangle 224" class="code-v" transform="translate(1602 1000)" d="M0 0h3v54.852H0z"/></g></g></svg>