<svg viewBox="0 0 62 56" xmlns="http://www.w3.org/2000/svg" width="{{ .width }}" height="{{ .height }}"><g transform="translate(2 2)" fill="none" fill-rule="evenodd"><g stroke="{{ .fill }}" stroke-linecap="round"><path d="M53.075 41.412c2.907-3.65 4.595-8.183 4.595-13.425 0-4.977-1.522-9.552-4.165-13.41V1.907c0-1.384-.982-1.943-2.184-1.253l-8.525 4.891C38.703 3.58 34.001 2.477 29 2.477c-5.19 0-10.057 1.188-14.256 3.294L6.348.954C5.146.264 4.164.823 4.164 2.207v12.865A23.525 23.525 0 0 0 .33 27.987C.33 42.442 13.166 51.51 29 51.51c4.9 0 9.513-.868 13.547-2.496m4.294-2.155c.234-.144.466-.29.694-.44" stroke-width="4"/><path d="M48.831 37.154c.43-1.378.652-2.796.652-4.215 0-3.9-1.082-7.3-3.73-9.838-1.51-1.45-3.53-2.618-6.151-3.44C36.794 18.782 33.296 18.3 29 18.3c-15.328 0-20.483 6.128-20.483 14.639 0 1.42.223 2.84.654 4.22" stroke-width="3.4"/><path d="M26.205 43.379a5.951 5.951 0 0 0 3.116.876c1.157 0 2.238-.33 3.155-.9" stroke-width="3"/></g><ellipse fill="{{ .fill }}" cx="18.417" cy="31.073" rx="1.615" ry="4.185"/><ellipse fill="{{ .fill }}" cx="39.583" cy="31.073" rx="1.615" ry="4.185"/></g></svg>