<svg data-name="Layer 1" height="64" id="Layer_1" viewBox="0 0 64 64" width="64" xmlns="http://www.w3.org/2000/svg"><defs><style>.cls-1{fill:#1d1d1b}</style></defs><path class="cls-1" d="M11.84 21.05c-.06-.12-.33-.71-.59-.53a1.73 1.73 0 0 0-.34 1.56 2.93 2.93 0 0 0 1.22 1.31c.13 0 .31-.25.38-.44s-.34-.41-.59-.94-.02-.83-.08-.96zm3.56-6.59A4.78 4.78 0 0 0 14 15.8c0 .13.63.56.84.59s.28-.37.66-.75 1-.09 1-.09.47-.5.38-.78-.88-.56-1.48-.31zm5.84 4.44a22.8 22.8 0 0 1-.62 2.81c-.5 1.13-1.59 2.41-1.59 2.63s.38.28.66.22.81-.66 1.5-2a10.29 10.29 0 0 0 .94-3.37c-.04-.19-.89-.3-.89-.3zm1.38 14.19a33.31 33.31 0 0 0-2.62 3.3 2 2 0 0 0 1 .19 17.46 17.46 0 0 0 2.28-3.19c-.07-.18-.54-.31-.66-.31zm36.83-11.3a23.1 23.1 0 0 0-3.71-.25 3.09 3.09 0 0 0-.33-1.08 2.93 2.93 0 0 0-1-.71l-.67-7.46s1.75-.79 1.71-2.17a2.31 2.31 0 0 0-2.83-2.29 2.43 2.43 0 0 0-2 2l-6 1.63a3.27 3.27 0 0 0-1.29-1.21 2.32 2.32 0 0 0-3.25 1.92A3.4 3.4 0 0 0 41.45 15l-1.71 11.87a4 4 0 0 0-2.5 1 3.78 3.78 0 0 0-1.17 2.63l-2.29-.21c-1-.08-3.42-.33-3.42-.33a4.9 4.9 0 0 0-.21-1.12c-.17-.46-1-.92-1-.92l1-4.29a2.14 2.14 0 0 0 .92-1 1.7 1.7 0 0 0-1.29-2.37 1.94 1.94 0 0 0-2.29.75L26 20.62s.54-4.5-1-6.54-6-3-9.08-2.75-5.17 4-5.17 4l-1.16-.5a2.93 2.93 0 0 0-.47-2.22c-.75-1-3.09-.28-3.84.69s-1.09 2.44.31 3.38a2.8 2.8 0 0 0 2.88 0l1 .75a8.2 8.2 0 0 0-1.13 1.87 6.39 6.39 0 0 0 0 4.41A9.7 9.7 0 0 0 12.18 28c1.56.69 6.12 2 9.5-.19a10 10 0 0 0 4.09-6l1.56.25a3.21 3.21 0 0 0 .31.88 2.37 2.37 0 0 0 1 .94l-.81 3.94a3.43 3.43 0 0 0-1.34.69 2.9 2.9 0 0 0-1 1.34 29.92 29.92 0 0 0-3 .16 5.87 5.87 0 0 0-3.28 1.75c-1.09 1-4.5 6.69-4.5 6.69a8.1 8.1 0 0 0-1.81.5A10 10 0 0 0 8 43.3a8.62 8.62 0 0 0 1 9.75c2.06 2.34 5.44 2.81 14.28 3s16.38.09 20.59.09 6.44-.41 8.09-1.84a8.8 8.8 0 0 0 2.56-9.28c-1.31-4.62-4.66-5.16-4.66-5.16a19.26 19.26 0 0 0-1.69-2.75 62.34 62.34 0 0 0-4.66-5.5 9.37 9.37 0 0 0-.37-2.84 3.87 3.87 0 0 0-2.25-2l1.69-11.25a3.14 3.14 0 0 0 1.94-.91 3.09 3.09 0 0 0 .66-2.16L50.71 11s0 .19.28.84 1.56.53 1.56.53l.5 7.31a3.58 3.58 0 0 0-1.22.78 4.73 4.73 0 0 0-.39 1.86s-2.25-.08-2.75 0-.46.42-.54.67 2 6.88 2 6.88 1 .08 1.21-.21a31.46 31.46 0 0 0 .72-4.66 21 21 0 0 1 3.58-.42s.79 5.17 1 5.38 1.25.13 1.38-.17 1.54-7.79 1.41-8zm-51-7.05a1.39 1.39 0 0 1-2.25 1.09c-1.34-.75 0-2.37.72-2.5 1.33-.23 1.7.44 1.57 1.41zM15.74 13c1.41-.37 2.94-.31 3.22 1.47a12.82 12.82 0 0 1-.66 4.63l-6.09-3.16s2.13-2.58 3.53-2.94zm-5 3.66c.21 0 5.81 2.66 5.81 3s-.66 1.88-1.06 1.81a54.2 54.2 0 0 1-4.75-4.19c-.31-.28-.31-.67-.03-.64zm-.09 7.22c-2.09-1.59 0-4.59.25-4.75 0 0 4.69 3.94 4.63 4.06s-2.82 2.27-4.91.67zm12.35.05c-1.78 2.59-3.41 3.19-5.12 3.31a8.43 8.43 0 0 1-3.41-.31c-.41-.19-.72-.66-.37-.78a11 11 0 0 0 5.09-4.81c1.75-3.31 1.78-6.94 2-7.19a3.25 3.25 0 0 1 2.75 2.56c.49 2.12.83 4.62-.94 7.22zm28.87 20.15c1.59 2.81.56 7.5-1.87 9.09s-17.91 1.22-24.31 1-12.6-.17-14.95-2.12-2.31-5.31-.74-7.66 3.62-4.47 10.16-4.84a205.14 205.14 0 0 1 22.31.5c5.71.66 7.8 1.22 9.4 4.03zm-8.63-10.15c1.06 1.44 3.34 4.63 3.09 4.66a1.83 1.83 0 0 1-.75-.09c-.16-.06-2.81-3.5-3.06-3.53s-1 .28-.87.5 2.78 2.81 2.59 2.84a5 5 0 0 1-1.37 0c-.16-.09-2.16-2.81-2.34-2.87s-1.09.22-.94.44 2.38 2.34 2.19 2.44a2.08 2.08 0 0 1-1.16 0c-.19-.12-1.47-2.06-1.75-2.12s-1 .19-.84.47 1.31 1.53 1.16 1.53l-22.1-.2c.31-.34 3.31-5.37 5.56-6.12s12.53.06 15.75.37 3.78.24 4.84 1.68zm-.94-3.09a16.74 16.74 0 0 1-5-.53 2.74 2.74 0 0 1 2.78-2.41c2.19.1 2.72 2.74 2.22 2.93zM42 14.21c-.81-.56-.87-2.59.34-3 .68-.23 1.59.34 1.63 1.5s-1.13 2.06-1.97 1.5zm10.13-3.12c-.44-.56-.16-2.19.94-2.34.68-.1 1.31.94 1.06 1.75s-1.54 1.14-1.98.58zm1.44 9.5a.9.9 0 0 1 .91 1c-.12.41-1.5.44-1.66.28a.86.86 0 0 1 .77-1.29zm3.91 5.91c-.22-.06-.34-3-.69-3.06a33.87 33.87 0 0 0-5.87.63c0 .22 0 2.56-.31 2.59s-.78-3-.78-3.34c0 0 3-.34 5.25-.47s3.31-.25 3.28 0-.65 3.7-.87 3.64zM15.71 41.43c-5 1.28-6 5.66-4.75 8.22s3 3.16 8.75 3.63 21 .31 25.78 0 5.69-2 6.09-4.22.53-4.84-1.75-6.44-7.66-1.41-12.94-1.47-19.03-.27-21.18.28zm6.53 7.13c-1 3.72-6.5 4.69-9 2.25s-2.34-7.75 4.06-8.31a4.67 4.67 0 0 1 4.94 6.05zm23.63-6a4.67 4.67 0 0 1 4.91 6.06c-1 3.72-6.5 4.69-9 2.25s-2.32-7.73 4.09-8.29zm-9.16 6.06c-1 3.72-6.5 4.69-9 2.25s-2.34-7.75 4.06-8.31a4.67 4.67 0 0 1 4.94 6.08zm-20.81-3a2 2 0 0 0-.12 3.13c1.34 1.34 3.94.19 3.41-1.62a2.18 2.18 0 0 0-3.29-1.49zm14.5.13a2 2 0 0 0-.12 3.13c1.34 1.34 3.94.19 3.41-1.62a2.18 2.18 0 0 0-3.29-1.49zM48 47.14a2.18 2.18 0 0 0-3.28-1.5 2 2 0 0 0-.12 3.13c1.33 1.34 3.92.23 3.4-1.63z" id="space-rover-2"/></svg>