<svg xmlns="http://www.w3.org/2000/svg" width="{{ .width }}" height="{{ .height }}" viewBox="0 0 31.403 31.404"><path d="M31.403 21.306c0-4.597-4.388-8.32-9.8-8.32-5.414 0-9.802 3.725-9.802 8.32 0 4.597 4.388 8.322 9.802 8.322 1.701 0 3.302-.369 4.697-1.019l3.863 1.671-.447-4.309c1.066-1.329 1.687-2.937 1.687-4.665zm-13.102-2.254a1.395 1.395 0 1 1 0-2.79 1.395 1.395 0 0 1 0 2.79zm6.604 0a1.395 1.395 0 1 1 .003-2.79 1.395 1.395 0 0 1-.003 2.79z"/><path d="M21.604 11.885c1.515 0 2.957.27 4.271.755.009-.175.03-.345.03-.521 0-6.074-5.801-10.996-12.953-10.996C5.799 1.123 0 6.044 0 12.119c0 2.284.822 4.408 2.229 6.167l-.591 5.694 5.104-2.213c1.264.59 2.661.986 4.136 1.189a8.143 8.143 0 0 1-.179-1.65c.001-5.195 4.892-9.421 10.905-9.421zm-4.287-6.428a1.84 1.84 0 1 1-1.841 1.84c0-1.016.825-1.84 1.841-1.84zM8.586 9.139a1.84 1.84 0 0 1 0-3.682 1.84 1.84 0 1 1 0 3.682z"/></svg>