<svg viewBox="0 0 62 57" xmlns="http://www.w3.org/2000/svg" width="{{ .width }}" height="{{ .height }}"><g stroke="{{ .fill }}" fill="none" fill-rule="evenodd"><path d="M37.094 14.889h12.333c5.45 0 9.867 4.425 9.867 9.885V44.58a9.87 9.87 0 0 1-9.883 9.885H12.443c-5.458 0-9.882-4.425-9.882-9.885V24.774c0-5.46 4.395-9.885 9.865-9.885h12.116" stroke-width="4" stroke-linecap="round"/><path d="M19.199 19.95v-9.233c0-4.702 3.818-8.514 8.53-8.514h6.383c4.71 0 8.53 3.795 8.53 8.514v9.232" stroke-width="4" stroke-linecap="round"/><path d="M34.845 30.366v-4.969a1 1 0 0 0-1.007-1.003h-5.451a1 1 0 0 0-1.007 1.003v4.97h-4.969a1 1 0 0 0-1.003 1.006v5.451a1 1 0 0 0 1.003 1.007h4.97v4.97a1 1 0 0 0 1.006 1.002h5.451a1 1 0 0 0 1.007-1.003v-4.969h4.97a1 1 0 0 0 1.002-1.007v-5.451a1 1 0 0 0-1.003-1.007h-4.969z" stroke-width="3.2"/></g></svg>