<svg width="301" height="258" viewBox="0 0 301 258" xmlns="http://www.w3.org/2000/svg"><g fill="#FFF" fill-rule="evenodd"><path d="M166.826.297c-10.014.752-19.043 3.02-28 7.032-1.93.865-5.469 2.645-6.517 3.28-.311.187-.68.392-.816.455-1.124.51-8.953 5.717-9.333 6.207-.047.06-.422.365-.834.68-3.022 2.31-7.64 6.596-10.333 9.59-3.518 3.91-5.014 5.816-7.928 10.1l-2.113 3.105-1.847-.653c-26.252-9.285-55.367 7.4-61.7 35.36-.564 2.487-.523 2.396-1.2 2.705-2.334 1.065-7.384 4.316-10.212 6.574-3.707 2.96-7.143 6.298-9.92 9.638-.456.55-.876 1.037-.93 1.083-.206.172-3.6 4.954-4.142 5.833-.31.505-.816 1.307-1.122 1.783-7.883 12.225-11.503 31.654-8.786 47.134.372 2.117.723 3.902.902 4.583.085.321.275 1.11.422 1.75.48 2.073 2.954 9.241 3.396 9.834.067.091.225.43.347.75 1.055 2.758 6.225 11.7 7.323 12.666.052.046.425.533.83 1.084.715.97 1.732 2.205 3.088 3.75 2.314 2.635 6.582 6.598 9.262 8.598 3.85 2.873 5.984 4.207 10.287 6.43 2.671 1.378 2.434 1.376 2.703.013.682-3.46 2.117-6.51 4.812-10.217.203-.279.126-.35-.91-.835-7.242-3.385-14.463-9.35-19.455-16.073-.412-.557-.827-1.112-1.242-1.666-.073-.093-.65-.992-1.287-2-8.338-13.226-10.654-28.93-6.66-45.167.963-3.913 3.554-9.999 5.962-14 .905-1.503 3.044-4.708 3.283-4.917.053-.046.355-.42.672-.833.317-.412.652-.832.746-.93.092-.1.58-.68 1.085-1.29 1.01-1.22 3.9-4.098 5.334-5.31 1.815-1.536 2.101-1.765 3.333-2.667 2.869-2.102 5.678-3.728 9.833-5.69 2.199-1.04 3.497-2.685 3.828-4.853 1.502-9.833 4.782-16.73 10.794-22.69 10.968-10.875 25.946-13.206 39.958-6.218 4.552 2.27 8.523.986 9.924-3.205.195-.585.43-1.139.52-1.23.106-.11.12-.057.041.152-.085.223-.063.283.074.2.107-.068.195-.193.195-.28 0-.322 2.913-4.855 4.653-7.239 6.704-9.192 15.026-16.44 25.02-21.792.323-.173.883-.722 1.245-1.22.564-.778.732-.905 1.202-.905.722 0 .698.056-.327.746-1.102.743-.83.753.647.023 17.614-8.703 40.214-8.842 58.458-.358 1.572.731 2.416.945 1.242.315-.502-.27-.522-.305-.192-.356.257-.04.59.17 1.119.706.413.42 1.075.914 1.468 1.098 1.037.486 1.782.895 2.942 1.621 10.982 6.861 18.633 14.497 25.508 25.455 2.337 3.727 5.495 10.52 7.014 15.084.816 2.45 1.676 5.554 2.332 8.416.707 3.088 1.402 7.948 1.587 11.084.438 7.438 1.091 8.37 7.017 9.994 14.577 4 27.6 15.798 32.742 29.667.77 2.078 1.313 3.677 1.788 5.255.885 2.943 1.063 3.65 1.132 4.5.038.46.149 1.21.248 1.667.866 4.025.823 12.345-.091 17.543-.15.848-.225 1.621-.166 1.716.058.095.024.271-.076.392s-.262.661-.358 1.201c-.186 1.03-1.673 5.595-2.52 7.731-1.35 3.414-4.6 9.195-6.531 11.62-2.59 3.252-5.322 6.166-7.387 7.88-.44.361-.873.731-1.298 1.11-.505.496-4.019 2.946-5.586 3.891-7.358 4.445-14.704 6.496-24.253 6.772l-3.913.113v12.633l4.791-.064c2.637-.036 5.356-.152 6.043-.258l2.416-.373c22.738-3.5 42.21-20.572 49.226-43.157.386-1.238.778-2.494.874-2.792.094-.3.125-.71.066-.917-.07-.254-.055-.303.05-.153.11.16.18.07.255-.333.055-.305.219-1.08.363-1.722 2.861-12.747 1.798-25.946-3.133-38.916-2.81-7.388-8.286-15.666-14.358-21.706-2.778-2.762-7.882-6.923-9.844-8.024-.588-.34-1.17-.688-1.749-1.042-4.03-2.458-7.594-4.114-12.36-5.743l-.61-.208-.186-1.68c-.236-2.138-.637-4.969-.943-6.68-.53-2.956-.611-3.37-.827-4.25l-.466-1.917c-1.038-4.304-4.019-13.177-4.758-14.164-.07-.093-.226-.432-.347-.753-2.218-5.883-8.785-16.175-14.55-22.805-.701-.806-6.704-6.806-7.453-7.449-3.871-3.327-7.194-5.838-10.541-7.969l-1.833-1.168c-1.446-.922-3.056-1.776-3.35-1.776-.151 0-.275-.078-.275-.173 0-.2-4.51-2.447-6.945-3.46-4.782-1.992-8.227-3.129-12.89-4.257-2.821-.683-6.025-1.285-8.582-1.613-4.648-.596-12.03-.815-16.417-.486"/><path d="M298.73 128.657c.46.656.328 1.07-.158.492-.43-.51-.535-.863-.26-.863.087 0 .274.167.418.371M287.716 131.274c-.086.43-.143.492-.257.287-.18-.323.013-1.191.22-.984.081.08.098.394.037.697M287.908 133.232l-.123.472-.154-.407c-.193-.504-.048-.983.217-.716.11.108.133.37.06.65M220.488 142.89c-5.363.485-11.351 3.206-14.686 6.672-7.844 8.153-3.8 19.612 8.436 23.913 1.008.354 1.965.644 2.125.644.278 0 .292 2.088.292 41.5v41.5h14.333v-8.666h11.834v-10.5h-11.834v-4h11.834v-10.5h-11.834v-49.27l.875-.223c8.123-2.072 13.892-8.351 13.865-15.09-.041-9.953-11.524-17.223-25.24-15.98M146.655 151.107c-2.822.415-5.573 1.692-7.959 3.694-.663.558-1.208 1.064-1.208 1.125-.001.06-.257.38-.57.709-3.488 3.679-4.632 10.677-2.584 15.794 4.868 12.156 21.446 13.69 28.163 2.608 1.143-1.886 1.681-3.311 2.077-5.5 1.927-10.655-7.167-20.008-17.919-18.43"/><path d="M227.156 151.362c.779.13 1.678.319 2 .42.32.1.844.262 1.166.357.904.268 3.526 1.597 4.084 2.07 3.543 3.007 3.947 5.225 1.467 8.06-5.39 6.163-20.218 5.746-24.725-.695-3.93-5.614 5.917-11.897 16.008-10.212M68.986 152.058c-3.02.433-3.787.632-5.547 1.446-10.018 4.628-12.254 18.118-4.261 25.713 7.062 6.71 18.272 5.62 23.886-2.321 3.29-4.655 3.682-11.972.893-16.692a45.054 45.054 0 0 1-.64-1.133c-2.257-4.14-9.534-7.7-14.331-7.013M106.569 160.36c-12.567 2.528-17.064 18.217-7.736 26.992 4.769 4.487 11.662 5.57 17.57 2.763 11.674-5.547 12.098-21.952.73-28.207-2.804-1.543-7.307-2.201-10.564-1.548M140.236 183.615c-4.33.427-8.5 2.37-11.801 5.504l-1.36 1.29.997.512c3.108 1.591 6.338 4.49 8.869 7.959 1.229 1.682 2.913 5.468 3.532 7.935.549 2.192.644 3.533.774 10.923l.12 6.868.685.087c6.847.87 16.725.418 23.517-1.073 4.497-.988 9.5-2.74 10.122-3.545.34-.44.44-15.428.123-18.42-.945-8.893-7.288-15.956-15.885-17.69-1.7-.344-16.99-.614-19.693-.35"/><path d="M60.986 184.73c-9.311 1.476-15.754 7.546-17.445 16.438-.368 1.938-.538 19.709-.192 20.167.129.17.866.472 1.723.707l3.08.842c.87.24 2.034.544 2.584.677.55.132 1.412.344 1.917.47 7.03 1.76 17.995 2.649 24.375 1.98l.958-.101v-6.325c0-6.503.153-9.453.603-11.631 1.455-7.04 5.084-12.215 11.403-16.257.445-.28.886-.57 1.322-.862.146-.123-1.905-1.887-3.246-2.791-2.68-1.81-5.29-2.8-8.377-3.183-1.811-.225-17.421-.333-18.705-.13"/><path d="M99.403 192.944c-7.228 1.332-13.261 6.474-15.561 13.26-.987 2.91-1.19 5.483-1.19 15.12v7.955l.376.228c.206.125.825.352 1.375.503.55.153 1.934.54 3.075.866 14.338 4.068 29.904 4.445 42.175 1.019 2.588-.722 6.273-2.218 6.683-2.712.206-.25.248-16.707.048-18.813-.776-8.168-7.443-15.476-15.76-17.275-2.478-.537-18.511-.651-21.221-.151M178.072 193.91c1.219 2.908 1.912 6.121 1.915 8.875 0 .964.049 2.145.107 2.625l.105.875h32.286V193.62h-17.268c-16.38 0-17.26.016-17.145.291"/></g></svg>