<svg viewBox="0 0 60 53" xmlns="http://www.w3.org/2000/svg" width="{{ .width }}" height="{{ .height }}"><g transform="translate(2 2)" fill="none" fill-rule="evenodd"><path d="M0 16.469V5.439C0 2.434 2.442 0 5.459 0H50.54C53.556 0 56 2.435 56 5.443V16.38m0 8.8v18.37c0 3.01-2.442 5.45-5.459 5.45H38.595m-20.433 0H5.46C2.444 49 0 46.56 0 43.56V25.477" stroke="{{ .fill }}" stroke-width="4" stroke-linecap="round"/><path d="M32.318 10.023h6.785c3.747 0 6.785 2.99 6.785 6.683v10.342c0 3.691-3.037 6.683-6.782 6.683H31.85m1.156 0H16.894c-3.746 0-6.782-2.99-6.782-6.683V16.706c0-3.69 3.042-6.683 6.783-6.683h16.012" stroke="{{ .fill }}" stroke-width="3.4" stroke-linecap="round"/><ellipse fill="{{ .fill }}" cx="45.223" cy="40.546" rx="2.007" ry="2"/><path d="M18.867 24.603l4.64-5.464a.906.906 0 0 1 1.356-.06l5.079 5.063a1 1 0 0 0 1.414 0l5.783-5.763" stroke="{{ .fill }}" stroke-width="3.4" stroke-linecap="round"/></g></svg>