<svg xmlns="http://www.w3.org/2000/svg" width="{{ .width }}" height="{{ .height }}" viewBox="0 0 547.597 547.597"><path d="M140.81 475.111h.024l189.91-.269c8.434-.013 15.3-6.886 15.3-15.318v-21.298c0-8.428-6.854-15.288-15.3-15.288l-189.91.264c-8.433.012-15.3 6.885-15.3 15.318v21.31c.001 8.427 6.855 15.281 15.276 15.281z"/><path d="M58.667 517.854c.073 29.26.073 29.449 3.072 29.449h.055l10.612.294h.086s85.814 0 171.629-.036c42.914-.019 85.821-.05 118-.092 16.09-.019 29.505-.043 38.887-.074 17.803-.055 17.803-.055 17.803-3.072l.3-10.697V333.299c0-8.434-6.866-15.3-15.3-15.3h-11.909c-8.434 0-15.3 6.866-15.3 15.3V496.22c0 5.062-4.119 9.18-9.181 9.18H110.51c-5.061 0-9.18-4.118-9.18-9.18V333.299c0-8.434-6.867-15.3-15.3-15.3H73.82c-8.433 0-15.3 6.86-15.3 15.3 0 23.342.012 76.084.055 122.981.019 23.447.05 45.442.092 61.574z"/><path d="M142.322 397.399l189.402 17.467c.478.043.948.062 1.413.062 7.956 0 14.468-5.985 15.159-13.917l1.83-21.096c.729-8.396-5.508-15.851-13.898-16.628l-189.102-17.461c-8.593-.795-15.869 5.441-16.653 13.825l-1.97 21.108a15.172 15.172 0 0 0 3.452 11.181 15.19 15.19 0 0 0 10.367 5.459zM437.636 208.849a15.253 15.253 0 0 0 17.694 12.443l21.065-3.678c8.311-1.451 13.898-9.395 12.454-17.706l-32.504-187.23c-1.42-8.207-9.21-13.917-17.692-12.448l-21.065 3.678c-8.311 1.451-13.898 9.395-12.454 17.705l32.502 187.236zM190.333 194.375l163.6 96.708a15.28 15.28 0 0 0 7.778 2.136c5.393 0 10.447-2.876 13.183-7.509l10.876-18.36c2.08-3.519 2.674-7.631 1.658-11.591a15.18 15.18 0 0 0-7.032-9.358l-163.6-96.714c-7.014-4.149-16.836-1.597-20.967 5.374l-10.869 18.36a15.2 15.2 0 0 0-1.658 11.591 15.21 15.21 0 0 0 7.031 9.363zM387.525 240.501a15.276 15.276 0 0 0 12.626 6.659c3.091 0 6.077-.924 8.635-2.681l17.405-11.934c6.953-4.768 8.752-14.314 4.015-21.292L323.29 54.104c-4.584-6.732-14.498-8.623-21.236-3.984l-17.737 12.21c-6.945 4.779-8.727 14.327-3.971 21.291l107.179 156.88zM154.482 302.319l183.465 49.156c1.298.349 2.632.526 3.966.526 6.903 0 12.98-4.67 14.762-11.347l5.508-20.624c2.179-8.152-2.681-16.555-10.826-18.74l-183.465-49.162c-8.017-2.148-16.604 2.852-18.728 10.826l-5.508 20.63c-2.179 8.142 2.68 16.551 10.826 18.735z"/></svg>