<svg width="254" height="238" viewBox="0 0 254 238" xmlns="http://www.w3.org/2000/svg"><path d="M228.654 193.1v15.833h-10.667c-5.867 0-10.667-.041-10.667-.092 0-.05.626-1.006 1.392-2.125.764-1.118 3.178-4.695 5.364-7.95 10.02-14.92 11.565-17.22 12.95-19.291.814-1.215 1.511-2.209 1.553-2.209.041 0 .075 7.125.075 15.834m.541-31.153c-.828.248-1.257.8-5.367 6.903-11.791 17.506-18.171 26.995-22.578 33.583-1.746 2.612-3.224 4.787-3.281 4.833-1.02.817-1.606 7.144-.808 8.734.638 1.274-.646 1.178 16.338 1.227l15.155.045v6.255c0 8.261-.316 7.74 4.692 7.738 4.767-.001 4.461.525 4.468-7.695l.006-6.281 3.459-.052c4.735-.075 4.878-.203 4.871-4.375-.007-3.934-.207-4.096-5.074-4.096h-3.256v-22.742c0-24.197.031-23.304-.817-23.88-.501-.341-6.799-.5-7.808-.197m-69.791-1.011c-8.555 1.543-14.71 7.374-17.063 16.164-1.074 4.014-.569 4.666 3.612 4.666 3.622 0 3.771-.097 4.847-3.148 2.959-8.402 10.648-12.083 18.451-8.835 7.615 3.17 9.02 13.841 2.862 21.733l-.637.834c-1.153 1.516-1.465 1.895-2.739 3.33-1.537 1.731-7.211 8.004-10.333 11.424-.55.602-1.301 1.43-1.667 1.837a731.845 731.845 0 0 1-3.75 4.155c-.138.147-.925 1.01-1.75 1.918l-2.5 2.748c-4.112 4.512-4.635 5.121-4.977 5.788-.393.767-.403 6.29-.013 6.847.639.912-.347.87 20.273.867 20.498-.003 19.513.04 20.201-.884.468-.631.617-4.851.205-5.838-.567-1.355.388-1.274-15.075-1.275l-13.719-.001 1.543-1.708c.849-.94 1.586-1.746 1.638-1.792.052-.046 1.063-1.171 2.248-2.5 1.185-1.329 2.236-2.491 2.334-2.583.099-.092 1.187-1.292 2.419-2.667 1.233-1.375 2.515-2.8 2.851-3.166.336-.367 1.385-1.53 2.332-2.584a146.503 146.503 0 0 1 1.814-2c.051-.046.73-.796 1.509-1.666.779-.871 1.691-1.884 2.028-2.25.336-.367.935-1.079 1.332-1.584.397-.504.851-1.061 1.011-1.236.159-.175.497-.625.75-1 .254-.374.504-.718.555-.764.847-.752 3.13-5.026 4.14-7.75 3.656-9.856-.754-21.193-9.799-25.19-.514-.227-1.082-.481-1.267-.565-3.153-1.451-9.537-2.07-13.666-1.325m-126.13-46.782c-1.912.595-2.455 1.712-2.455 5.049 0 3.237.574 4.32 2.584 4.877.958.265 20.817.258 21.875-.008 3.664-.923 3.748-8.846.105-9.934-.953-.285-21.188-.27-22.109.016m115.46-28.338c-2.502 2.587-3.453 3.628-5.656 6.191a187.475 187.475 0 0 0-3.552 4.25c-.697.876-1.658 2.08-2.135 2.676-2.464 3.077-8.614 11.742-11.474 16.167-.359.559-.723 1.114-1.093 1.666-.445.649-3.177 5.07-4.252 6.88-.532.896-1.029 1.667-1.104 1.714-.075.046-1.36-.95-2.855-2.213-1.494-1.264-3.054-2.559-3.465-2.878-.411-.32-.829-.657-.928-.75-3.426-3.209-19.134-14.14-23.569-16.402-.138-.07-.607-.335-1.042-.588-.435-.254-.792-.408-.792-.343 0 .76 7.155 10.862 10.858 15.33 1.843 2.224 4.984 5.957 5.398 6.415.29.322 1.232 1.373 2.093 2.335 3.691 4.13 6.592 7.148 11.968 12.456 2.622 2.589 4.805 4.708 4.851 4.709.046.001.776-1.143 1.623-2.54.885-1.462 1.776-2.92 2.672-4.375a155.25 155.25 0 0 0 2.274-3.833 271.888 271.888 0 0 1 1.932-3.333c2.3-3.88 6.664-12.181 9.111-17.334 1.429-3.008 2.554-5.435 2.554-5.511 0-.034.182-.459.405-.942.645-1.399 2.157-5.037 2.999-7.213.426-1.1.855-2.188.953-2.417.71-1.647 3.233-9.312 3.552-10.792.167-.774-.014-.682-1.326.675m-30.726-53.038c-.704.282-1.367.844-1.825 1.548l-.449.69V46.1c0 12.213-.075 11.265.989 12.474 1.428 1.623 7.045 1.494 8.33-.19.961-1.261.931-.865.927-12.321-.004-12.342.055-11.968-2.077-13.108-.727-.389-5.042-.518-5.895-.177M112.734.772c-10.668.579-21.56 2.66-31.417 6-1.236.419-6.108 2.209-6.583 2.419-.275.122-.967.414-1.538.649-2.028.835-4.53 2-7.624 3.547-4.977 2.489-11.16 6.214-14.861 8.953-.379.28-.856.622-1.061.76-6.068 4.069-15.783 13.16-21.599 20.21-.698.847-1.418 1.716-1.599 1.932-.396.472-3.463 4.514-3.763 4.96-.116.173-.48.689-.807 1.148-4.818 6.736-10.555 17.494-13.153 24.666-.167.459-.356.909-.421 1-.339.475-2.887 8.445-3.809 11.917-1.783 6.711-2.764 12.488-3.55 20.917-.269 2.878-.269 15.788 0 18.666.357 3.831.534 5.476.707 6.584l.504 3.25c.606 3.912 2.098 10.593 3.06 13.701l.942 3.049c2.012 6.511 6.275 16.447 9.146 21.317.28.475.509.891.509.924 0 .381 4.325 7.155 7.081 11.092 3.037 4.337 7.566 9.645 12.168 14.259 3.156 3.164 4.069 4.021 7.185 6.747 13.54 11.839 33.992 22.042 51.066 25.475l2.417.491c11.738 2.391 25.465 3.098 28.081 1.446 3.663-2.313 2.861-8.302-1.266-9.46-.744-.209-2-.297-5.189-.364-3.922-.082-7.698-.357-10.459-.761-8.745-1.28-16.239-3.051-24.334-5.75-2.607-.869-7.837-2.762-8.5-3.075a61.06 61.06 0 0 0-1.833-.765c-8.716-3.523-20.75-12.035-29.668-20.982-2.845-2.855-3.551-3.604-5.249-5.576-.504-.585-.993-1.148-1.086-1.25a33.907 33.907 0 0 1-.834-1.018c-.365-.459-.707-.871-.76-.917-.711-.613-5.025-6.686-7.399-10.417-2.168-3.406-5.576-9.835-7.156-13.5-.158-.366-.354-.816-.436-1-1.462-3.281-2.906-7.3-4.581-12.75-3.721-12.104-5.237-29.941-3.583-42.166.093-.688.249-1.888.347-2.667.2-1.599.906-5.863 1.158-7 2.868-12.938 6.904-23.31 13.132-33.75 2.561-4.292 6.822-10.363 9.299-13.25l1.5-1.75c10.111-11.801 24.129-22.356 37.399-28.159l2-.878c1.734-.765 1.921-.843 3.417-1.426 2.562-.997 6.513-2.344 9-3.066 2.446-.71 5.987-1.592 8.833-2.2 2.41-.515 7.303-1.246 10.167-1.519 1.008-.096 2.021-.21 2.25-.253 2.473-.468 14.872-.366 19.99.164 6.926.717 14.125 2.129 20.093 3.944 3.114.946 8.178 2.706 9.5 3.301.184.082 1.272.542 2.417 1.022 9.232 3.866 22.532 12.266 28.599 18.062.101.096.845.775 1.655 1.508 3.361 3.044 8.464 8.457 11.157 11.837.364.456.709.867.767.913.211.166 3.952 5.288 4.93 6.75 3.399 5.08 6.694 11.022 9.058 16.333a91.33 91.33 0 0 1 1.774 4.209c.853 2.155 2.134 5.702 2.482 6.875 1.56 5.259 2.292 8.124 3.051 11.916.546 2.721 1.027 5.583 1.027 6.095 0 .314-.203.322-8.125.323-9.757 0-9.708-.012-9.708 2.544 0 1.911.524 2.79 7.12 11.955.495.688 1.64 2.3 2.544 3.583 9.991 14.183 10.235 14.507 11.248 15.038.72.377 2.038.343 2.838-.072.85-.443 1.905-1.8 6.583-8.474a664.817 664.817 0 0 1 2.583-3.659c.55-.77 1.784-2.51 2.742-3.866a3321.29 3321.29 0 0 1 3.574-5.05c1.006-1.421 2.225-3.146 2.708-3.833.332-.478.669-.95 1.015-1.417 1.906-2.311 2.202-5.466.604-6.409-.559-.33-.823-.341-7.962-.341h-7.384l-.104-.792c-.726-5.564-1.756-10.551-3.523-17.041-.916-3.367-3.096-9.653-4.249-12.25-.082-.184-.461-1.084-.843-2-1.1-2.638-3.481-7.578-4.659-9.667-2.959-5.252-2.887-5.131-4.834-8.083-2.228-3.38-5.244-7.64-5.662-8-.054-.046-.506-.609-1.005-1.25-2.782-3.577-5.652-6.722-10.279-11.264-2.758-2.707-3.841-3.695-6.381-5.82a52.203 52.203 0 0 1-1.077-.919c-.888-.834-6.462-4.981-8.768-6.524-1.804-1.206-5.788-3.723-5.893-3.723-.033 0-.764-.423-1.622-.94-3.433-2.064-9.592-5.03-14.814-7.134C147.52 2.729 129.873-.16 112.734.772" fill="#FFF" fill-rule="evenodd"/></svg>