<svg xmlns="http://www.w3.org/2000/svg" viewBox="0 0 58 58" width="{{ .width }}" height="{{ .height }}" fill="{{ .fill }}"><path d="M50.95 12.187l-.771-.771L40.084 1.321 39.313.55A1.891 1.891 0 0 0 37.985 0H8.963C7.777 0 6.5.916 6.5 2.926V56c0 .837.842 1.653 1.838 1.91.05.013.098.032.15.042.156.031.315.048.475.048h40.074c.16 0 .319-.017.475-.048.052-.01.1-.029.15-.042.996-.257 1.838-1.073 1.838-1.91V13.978c0-.767-.092-1.333-.55-1.791zM47.935 12H39.5V3.565L47.935 12zM8.963 56c-.071 0-.135-.026-.198-.049a.458.458 0 0 1-.265-.414V41h41v14.537a.46.46 0 0 1-.265.414c-.063.023-.127.049-.198.049H8.963zM8.5 39V2.926c0-.217.033-.926.463-.926h28.595a1.54 1.54 0 0 0-.058.391V14h11.609c.135 0 .264-.025.39-.058l.001.036V39h-41z"/><path d="M22.042 44.744a3.438 3.438 0 0 0-1.128-.615 4.067 4.067 0 0 0-1.271-.205h-2.898V54h1.641v-3.637h1.217c.528 0 1.012-.077 1.449-.232s.811-.374 1.121-.656c.31-.282.551-.631.725-1.046.173-.415.26-.877.26-1.388 0-.483-.103-.918-.308-1.306s-.475-.717-.808-.991zm-.622 3.329c-.101.278-.232.494-.396.649a1.499 1.499 0 0 1-.54.335 1.808 1.808 0 0 1-.595.103h-1.504v-3.992h1.23c.419 0 .756.066 1.012.198.255.132.453.296.595.492.141.196.234.401.28.615a2.8 2.8 0 0 1 .068.567c0 .411-.05.755-.15 1.033zM31.954 45.4c-.424-.446-.957-.805-1.6-1.073s-1.388-.403-2.235-.403h-3.035V54h3.814c.127 0 .323-.016.588-.048.264-.032.556-.104.875-.219.319-.114.649-.285.991-.513s.649-.54.923-.937.499-.889.677-1.477.267-1.297.267-2.126a5.06 5.06 0 0 0-.314-1.757 4.436 4.436 0 0 0-.951-1.523zm-1.196 6.33c-.492.711-1.294 1.066-2.406 1.066h-1.627v-7.629h.957c.784 0 1.422.103 1.914.308s.882.474 1.169.807.48.704.581 1.114c.1.41.15.825.15 1.244 0 1.349-.246 2.38-.738 3.09zM35.598 54h1.668v-4.539h4.211V48.34h-4.211v-3.172H41.9v-1.244h-6.302zM38.428 22.961c-.919 0-2.047.12-3.358.358-1.83-1.942-3.74-4.778-5.088-7.562 1.337-5.629.668-6.426.373-6.802-.314-.4-.757-1.049-1.261-1.049-.211 0-.787.096-1.016.172-.576.192-.886.636-1.134 1.215-.707 1.653.263 4.471 1.261 6.643-.853 3.393-2.284 7.454-3.788 10.75-3.79 1.736-5.803 3.441-5.985 5.068-.066.592.074 1.461 1.115 2.242.285.213.619.326.967.326.875 0 1.759-.67 2.782-2.107.746-1.048 1.547-2.477 2.383-4.251 2.678-1.171 5.991-2.229 8.828-2.822 1.58 1.517 2.995 2.285 4.211 2.285.896 0 1.664-.412 2.22-1.191.579-.811.711-1.537.39-2.16-.385-.749-1.334-1.115-2.9-1.115zm-17.892 9.673c-.468-.359-.441-.601-.431-.692.062-.556.933-1.543 3.07-2.744-1.62 2.992-2.49 3.389-2.639 3.436zm8.2-22.922c.043-.014 1.045 1.101.096 3.216-1.426-1.459-.194-3.183-.096-3.216zm-2.067 16.026a71.291 71.291 0 0 0 2.674-7.564c1.123 2.018 2.472 3.976 3.822 5.544a49.812 49.812 0 0 0-6.496 2.02zm12.901-.479c-.308.431-.976.441-1.21.441-.533 0-.732-.317-1.547-.944a14.395 14.395 0 0 1 1.811-.108c.889 0 1.052.131 1.175.197-.022.071-.08.205-.229.414z"/></svg>