<svg xmlns="http://www.w3.org/2000/svg" width="{{ .width }}" height="{{ .height }}" fill="{{ .fill }}" viewBox="0 0 67.125 67.125"><path d="M23.902 0C11.01 0 .523 10.488.523 23.38c0 12.891 10.487 23.379 23.379 23.379a23.258 23.258 0 0 0 14.471-5.037l24.816 24.817c.391.391.902.586 1.414.586s1.023-.195 1.414-.586a2 2 0 0 0 0-2.828L41.293 38.985c3.721-4.142 5.989-9.613 5.989-15.605C47.282 10.488 36.794 0 23.902 0zM4.523 23.38C4.523 12.694 13.216 4 23.902 4c10.687 0 19.38 8.694 19.38 19.38 0 5.396-2.221 10.279-5.791 13.795a1.959 1.959 0 0 0-.488.349 2.003 2.003 0 0 0-.271.343C33.31 40.9 28.825 42.76 23.903 42.76c-10.686-.001-19.38-8.695-19.38-19.38z"/><path d="M24.075 8.591c-8.25 0-14.962 6.712-14.962 14.962a2 2 0 0 0 4 0c0-6.044 4.918-10.962 10.962-10.962a2 2 0 0 0 0-4z"/></svg>