<svg xmlns="http://www.w3.org/2000/svg" viewBox="0 0 267.488 470.777"><defs><style>.flag-1{fill:#fff}.flag-2{fill:#1e2969}</style></defs><g id="Group_436" data-name="Group 436" transform="translate(-793.106 -627.244)"><path id="Path_432" data-name="Path 432" class="flag-1" d="M3379.5 3757.719h240.2l-31.049 66.753 31.049 72.171h-240.2z" transform="translate(-2559.104 -3130.098)"/><path id="Line_76" data-name="Line 76" fill="none" stroke="#4a60b2" stroke-width="8" d="M820.395 627.244v469.983"/><g id="Group_434" data-name="Group 434" transform="translate(853.657 668.506)"><path id="Path_2" data-name="Path 2" d="M78.9 68.448v27.673l23.967 13.826 23.967-13.826V68.448L102.867 54.6z" transform="translate(-78.9 -54.6)" fill="#e30c34"/><path id="Path_3" data-name="Path 3" class="flag-1" d="M130.878 96.2l-15.978 9.232v9.21l7.989-4.594v18.442l7.989 4.616v-27.674l7.989-4.616z" transform="translate(-106.911 -86.968)"/><path id="Path_4" data-name="Path 4" class="flag-1" d="M222.9 142.316v18.464l7.989-4.616v-18.442l-.022-.022z" transform="translate(-190.943 -119.258)"/></g><g id="Group_435" data-name="Group 435" transform="translate(909.647 682.332)"><path id="Path_5" data-name="Path 5" class="flag-2" d="M353.7 116.9v4.927h-8.322v22.858h-5.836v-22.858H331.2V116.9z" transform="translate(-331.2 -116.9)"/><path id="Path_6" data-name="Path 6" class="flag-2" d="M448.659 121.949H443.2V117h5.459zm-5.459 2.308h5.459v20.55H443.2z" transform="translate(-418.345 -116.978)"/><path id="Path_7" data-name="Path 7" class="flag-2" d="M509.389 117.521a9.132 9.132 0 0 1 4.727 3.529 12.275 12.275 0 0 1 1.975 4.483 21.331 21.331 0 0 1 .533 4.594 18.425 18.425 0 0 1-2.219 9.387 10.058 10.058 0 0 1-9.321 5.193H493.1V116.9h11.984a15.142 15.142 0 0 1 4.305.621zm-10.63 4.216v18.131h5.371a5.8 5.8 0 0 0 5.748-4.061 14.117 14.117 0 0 0 .888-5.3 13.136 13.136 0 0 0-1.332-6.524c-.888-1.509-2.663-2.264-5.3-2.264h-5.371z" transform="translate(-457.171 -116.9)"/><path id="Path_8" data-name="Path 8" class="flag-2" d="M639.839 119.874a7.1 7.1 0 0 1 1.265 4.239 6.127 6.127 0 0 1-1.287 4.083 6.409 6.409 0 0 1-2.13 1.576 6.249 6.249 0 0 1 3.218 2.441 7.257 7.257 0 0 1 1.087 4.061 8.206 8.206 0 0 1-1.243 4.438 7.806 7.806 0 0 1-1.975 2.2 7.454 7.454 0 0 1-3.129 1.4 19.669 19.669 0 0 1-3.928.377H619.2V116.9h13.426c3.395.067 5.792 1.043 7.213 2.974zm-15.091 1.864v6.125h6.746a5.453 5.453 0 0 0 2.929-.688 2.621 2.621 0 0 0 1.132-2.441 2.506 2.506 0 0 0-1.487-2.574 10.482 10.482 0 0 0-3.284-.444h-6.036zm0 10.719v7.412h6.746a6.494 6.494 0 0 0 2.818-.488 3.476 3.476 0 0 0 1.82-3.462 2.982 2.982 0 0 0-1.775-2.974 6.653 6.653 0 0 0-2.774-.466h-6.835z" transform="translate(-555.287 -116.9)"/></g><path id="Path_433" data-name="Path 433" d="M36 234.482a27.182 27.182 0 0 1 54.365 0z" transform="translate(757.106 863.539)" fill="#2996dd"/></g></svg>