<svg xmlns="http://www.w3.org/2000/svg" viewBox="0 0 474.451 55.817"><defs><style>.code-r{fill:none;stroke:#1e2969;stroke-linecap:round;stroke-miterlimit:10;stroke-width:6px}</style></defs><g id="Group_451" data-name="Group 451" transform="translate(-6027.313 -5680.551)"><g id="Group_444" data-name="Group 444" transform="translate(5504 4684)"><g id="Group_384" data-name="Group 384" transform="translate(527.555 999.551)"><g id="Group_382" data-name="Group 382"><path id="Path_395" data-name="Path 395" class="code-r" d="M21.752 25.3L14.1 17.652 21.752 10" transform="translate(-14.1 -10)"/><path id="Path_396" data-name="Path 396" class="code-r" d="M21.752 25.3L14.1 17.652 21.752 10" transform="translate(6.789 -10)"/><path id="Path_397" data-name="Path 397" class="code-r" d="M21.752 25.3L14.1 17.652 21.752 10" transform="translate(27.678 -10)"/><path id="Path_398" data-name="Path 398" class="code-r" d="M21.752 25.3L14.1 17.652 21.752 10" transform="translate(48.567 -10)"/><path id="Path_399" data-name="Path 399" class="code-r" d="M21.752 25.3L14.1 17.652 21.752 10" transform="translate(69.456 -10)"/><path id="Path_400" data-name="Path 400" class="code-r" d="M21.752 25.3L14.1 17.652 21.752 10" transform="translate(90.345 -10)"/><path id="Path_401" data-name="Path 401" class="code-r" d="M21.752 25.3L14.1 17.652 21.752 10" transform="translate(111.233 -10)"/><path id="Path_402" data-name="Path 402" class="code-r" d="M21.752 25.3L14.1 17.652 21.752 10" transform="translate(132.122 -10)"/></g><g id="Group_383" data-name="Group 383" transform="translate(167.111)"><path id="Path_395-2" data-name="Path 395" class="code-r" d="M21.752 25.3L14.1 17.652 21.752 10" transform="translate(-14.1 -10)"/><path id="Path_396-2" data-name="Path 396" class="code-r" d="M21.752 25.3L14.1 17.652 21.752 10" transform="translate(6.789 -10)"/><path id="Path_397-2" data-name="Path 397" class="code-r" d="M21.752 25.3L14.1 17.652 21.752 10" transform="translate(27.678 -10)"/><path id="Path_398-2" data-name="Path 398" class="code-r" d="M21.752 25.3L14.1 17.652 21.752 10" transform="translate(48.567 -10)"/><path id="Path_399-2" data-name="Path 399" class="code-r" d="M21.752 25.3L14.1 17.652 21.752 10" transform="translate(69.456 -10)"/><path id="Path_400-2" data-name="Path 400" class="code-r" d="M21.752 25.3L14.1 17.652 21.752 10" transform="translate(90.345 -10)"/><path id="Path_401-2" data-name="Path 401" class="code-r" d="M21.752 25.3L14.1 17.652 21.752 10" transform="translate(111.233 -10)"/><path id="Path_402-2" data-name="Path 402" class="code-r" d="M21.752 25.3L14.1 17.652 21.752 10" transform="translate(132.122 -10)"/></g><path id="Path_395-3" data-name="Path 395" class="code-r" d="M21.752 25.3L14.1 17.652 21.752 10" transform="translate(320.123 -10)"/><path id="Path_396-3" data-name="Path 396" class="code-r" d="M21.752 25.3L14.1 17.652 21.752 10" transform="translate(341.011 -10)"/><path id="Path_397-3" data-name="Path 397" class="code-r" d="M21.752 25.3L14.1 17.652 21.752 10" transform="translate(361.9 -10)"/><path id="Path_398-3" data-name="Path 398" class="code-r" d="M21.752 25.3L14.1 17.652 21.752 10" transform="translate(382.789 -10)"/><path id="Path_399-3" data-name="Path 399" class="code-r" d="M21.752 25.3L14.1 17.652 21.752 10" transform="translate(403.678 -10)"/><path id="Path_400-3" data-name="Path 400" class="code-r" d="M21.752 25.3L14.1 17.652 21.752 10" transform="translate(424.567 -10)"/><path id="Path_401-3" data-name="Path 401" class="code-r" d="M21.752 25.3L14.1 17.652 21.752 10" transform="translate(445.456 -10)"/></g><g id="Group_385" data-name="Group 385" transform="translate(569.333 1034.064)"><g id="Group_382-2" data-name="Group 382"><path id="Path_395-4" data-name="Path 395" class="code-r" d="M21.752 25.3L14.1 17.652 21.752 10" transform="translate(-14.1 -10)"/><path id="Path_396-4" data-name="Path 396" class="code-r" d="M21.752 25.3L14.1 17.652 21.752 10" transform="translate(6.789 -10)"/><path id="Path_397-4" data-name="Path 397" class="code-r" d="M21.752 25.3L14.1 17.652 21.752 10" transform="translate(27.678 -10)"/><path id="Path_398-4" data-name="Path 398" class="code-r" d="M21.752 25.3L14.1 17.652 21.752 10" transform="translate(48.567 -10)"/><path id="Path_399-4" data-name="Path 399" class="code-r" d="M21.752 25.3L14.1 17.652 21.752 10" transform="translate(69.456 -10)"/><path id="Path_400-4" data-name="Path 400" class="code-r" d="M21.752 25.3L14.1 17.652 21.752 10" transform="translate(90.345 -10)"/><path id="Path_401-4" data-name="Path 401" class="code-r" d="M21.752 25.3L14.1 17.652 21.752 10" transform="translate(111.233 -10)"/><path id="Path_402-3" data-name="Path 402" class="code-r" d="M21.752 25.3L14.1 17.652 21.752 10" transform="translate(132.122 -10)"/></g><g id="Group_383-2" data-name="Group 383" transform="translate(167.111)"><path id="Path_395-5" data-name="Path 395" class="code-r" d="M21.752 25.3L14.1 17.652 21.752 10" transform="translate(-14.1 -10)"/><path id="Path_396-5" data-name="Path 396" class="code-r" d="M21.752 25.3L14.1 17.652 21.752 10" transform="translate(6.789 -10)"/><path id="Path_397-5" data-name="Path 397" class="code-r" d="M21.752 25.3L14.1 17.652 21.752 10" transform="translate(27.678 -10)"/><path id="Path_398-5" data-name="Path 398" class="code-r" d="M21.752 25.3L14.1 17.652 21.752 10" transform="translate(48.567 -10)"/><path id="Path_399-5" data-name="Path 399" class="code-r" d="M21.752 25.3L14.1 17.652 21.752 10" transform="translate(69.456 -10)"/><path id="Path_400-5" data-name="Path 400" class="code-r" d="M21.752 25.3L14.1 17.652 21.752 10" transform="translate(90.345 -10)"/><path id="Path_401-5" data-name="Path 401" class="code-r" d="M21.752 25.3L14.1 17.652 21.752 10" transform="translate(111.233 -10)"/><path id="Path_402-4" data-name="Path 402" class="code-r" d="M21.752 25.3L14.1 17.652 21.752 10" transform="translate(132.122 -10)"/></g><path id="Path_395-6" data-name="Path 395" class="code-r" d="M21.752 25.3L14.1 17.652 21.752 10" transform="translate(320.123 -10)"/><path id="Path_396-6" data-name="Path 396" class="code-r" d="M21.752 25.3L14.1 17.652 21.752 10" transform="translate(341.011 -10)"/><path id="Path_397-6" data-name="Path 397" class="code-r" d="M21.752 25.3L14.1 17.652 21.752 10" transform="translate(361.9 -10)"/><path id="Path_398-6" data-name="Path 398" class="code-r" d="M21.752 25.3L14.1 17.652 21.752 10" transform="translate(382.789 -10)"/><path id="Path_399-6" data-name="Path 399" class="code-r" d="M21.752 25.3L14.1 17.652 21.752 10" transform="translate(403.678 -10)"/></g></g></g></svg>