<svg viewBox="0 0 64 48" xmlns="http://www.w3.org/2000/svg" width="{{ .width }}" height="{{ .height }}"><g stroke="{{ .fill }}" stroke-width="4" fill="none" fill-rule="evenodd" stroke-linecap="round"><path d="M42.128 19.278L31.752 29.654a2.462 2.462 0 0 1-3.481-.01l-5.825-5.825m-16.34-5.153V9.81c0-4.314 3.4-7.81 7.589-7.81h35.88c4.192 0 7.59 3.497 7.59 7.808v4.452m0 14.708v9.226c0 4.311-3.4 7.806-7.59 7.806h-35.88c-4.191 0-7.59-3.496-7.59-7.807V33.36m.092-11.417l-3.824-3.824m4.097 4.097l3.803-3.803"/><path d="M2.082 17.81l2.393 2.394a2.873 2.873 0 0 0 4.06.002l2.028-2.03m46.907 7.252l3.823 3.824m-4.097-4.097l-3.803 3.803m8.192.602l-2.394-2.393a2.873 2.873 0 0 0-4.06-.002l-2.028 2.03"/></g></svg>