<svg width="288" height="220" viewBox="0 0 288 220" xmlns="http://www.w3.org/2000/svg"><path d="M283.99 178.86c-.27.112-1.354.45-2.408.748-1.055.298-2.105.6-2.334.667-.38.114-.317.174.747.691 5.766 2.808.603 6.172-12.497 8.147-.734.11-1.738.267-2.235.35-1.75.293-8.944 1.041-12.598 1.31-6.95.51-10.04.594-21.667.594-11.669 0-13.31-.046-21.333-.59-3.568-.242-9.287-.834-12.167-1.259-.916-.136-1.89-.278-2.166-.317-.485-.069-.539-.002-1.717 2.048-3.736 6.503-9.238 12.618-15.757 17.51-.994.746-1.857 1.36-1.917 1.363-.478.023-.708.481-.472.938.96 1.857 6.038 3.88 13.28 5.29 7.038 1.37 15.793 2.344 26.666 2.968 5.09.292 26.744.292 31.833 0 12.377-.71 21.491-1.81 29.334-3.537 4.09-.902 7.977-2.359 9.491-3.555 1.467-1.16 1.34.393 1.341-16.363l.001-14.837-.513-.622c-1.008-1.222-2.189-1.85-2.912-1.545m-281.66.154c-.459.301-1.077.825-1.375 1.164l-.542.618v14.85c0 14.596.006 14.858.336 15.393 1.306 2.113 7.634 4.331 16.331 5.724l2.583.418c.825.134 2.25.328 3.167.433.916.103 2.566.294 3.666.422 16.856 1.96 43.145 1.96 60 0 1.1-.128 2.75-.319 3.667-.422a82.648 82.648 0 0 0 3.167-.433l2.583-.418c7.394-1.184 13.094-2.966 15.542-4.857.837-.648.844-.63-.917-1.805-.848-.566-1.735-1.187-1.97-1.382a31.206 31.206 0 0 0-.993-.768c-5.358-3.958-11.114-10.514-14.817-16.875-1.169-2.009-1.16-2.005-3.114-1.639-1.729.323-9.332 1.06-13.814 1.337-20.296 1.253-43.153.418-57.167-2.09-2.637-.472-3.357-.62-4.917-1.01-8.694-2.168-10.688-4.636-5.67-7.016l.91-.433-1.91-.53c-1.65-.456-2.376-.683-3.663-1.139-.138-.05-.625.157-1.083.458m280.33-38.648c-.917.298-2.146.683-2.73.858l-1.062.316 1.275.648c5.701 2.893-.192 6.353-14.066 8.258-4.978.684-5.118.7-10.084 1.184-14.488 1.411-39.06 1.25-53.094-.35-2.264-.258-2.13-.306-1.966.713.744 4.631.977 11.685.511 15.458-.515 4.153-1.107 7.272-1.884 9.901-.267.908-.462 1.677-.43 1.707.072.072 2.678.35 5.28.56 1.145.093 2.27.205 2.5.248 6.106 1.158 37.976 1.112 49.667-.07.87-.088 2.482-.246 3.583-.348 13.607-1.275 24.214-4.01 26.671-6.88l.58-.678v-29.72l-.459-.589c-.477-.61-2.127-1.813-2.444-1.778-.1.011-.93.264-1.848.562M2.13 140.29c-1.889 1.234-1.716-.43-1.716 16.611v14.83l.452.58c1.143 1.465 4.723 3.084 9.131 4.131.46.108 1.245.297 1.75.42.504.12 1.404.308 2 .417.596.11 1.46.273 1.917.364 2.37.473 9.962 1.485 13.5 1.8 10.318.92 14.426 1.082 27.333 1.083 13.66 0 18.907-.235 29.89-1.339.984-.099 1.05-.13.943-.463-.92-2.894-1.847-7.427-2.274-11.107-.449-3.883-.152-12.564.534-15.627.222-.987.281-.964-1.972-.739-18.782 1.884-44.086 1.516-61.37-.89-1.93-.27-5.828-.95-7-1.222-2.558-.593-3.255-.78-4.78-1.279-5.709-1.868-6.624-3.845-2.728-5.897l1.238-.65-.657-.175c-.36-.096-1.07-.28-1.574-.412a40.9 40.9 0 0 1-2.213-.674 40.867 40.867 0 0 0-1.334-.435c-.022 0-.503.303-1.07.673m123.81-6.577c.28.147 4.295 4.051 8.92 8.678l8.407 8.413 8.364-8.372c9.164-9.17 8.945-8.98 10.298-8.98 1.281-.002 1.594.236 5.57 4.23 5.775 5.802 6.23 4.338-4.767 15.353-4.668 4.677-8.487 8.558-8.487 8.625 0 .067 3.745 3.866 8.322 8.442 9.461 9.458 9.631 9.684 8.681 11.523-.38.737-7.379 7.65-8.097 7.997-1.905.923-1.8 1.002-11.447-8.634l-8.457-8.449-8.543 8.524c-11.102 11.078-9.637 10.658-15.739 4.515-3.944-3.97-4.238-4.392-3.96-5.684.221-1.027.65-1.495 8.977-9.812l8.412-8.4-8.257-8.242c-9.05-9.036-9.114-9.108-9.114-10.52 0-1.222.085-1.332 4.204-5.445 4.263-4.259 4.978-4.658 6.713-3.762m12.722-22.659c-9.87.783-21.316 5.621-28.5 12.05-14.797 13.236-20.714 31.727-16.22 50.68 3.396 14.324 13.703 27.09 27.034 33.485 3.16 1.516 4.81 2.152 8.436 3.26 6.161 1.881 14.893 2.371 22 1.235 12.098-1.934 23.76-8.68 31.231-18.064.44-.55.918-1.15 1.067-1.333 8.076-9.954 11.893-25.492 9.604-39.084-1.014-6.02-3.397-12.732-5.964-16.798-.242-.382-.438-.736-.438-.786 0-.196-3.366-5.09-3.91-5.687-.096-.103-.51-.604-.923-1.113-2.459-3.03-8.6-8.414-11.434-10.022a85.083 85.083 0 0 1-1.566-.935c-4.495-2.742-10.914-5.19-16.084-6.136-3.64-.666-4.277-.72-8.833-.769-2.568-.027-5.042-.019-5.5.017m107.17-13.123l5.666.354c4.061.254 8.911.756 14.417 1.49 13.221 1.763 19.43 5.057 14.917 7.915-2.66 1.684-9.378 3.36-17.084 4.26-.779.091-1.567.2-1.75.24-.968.215-9.977.98-15.25 1.294-4.868.291-26.279.291-31.25.001-14.52-.848-24.71-2.29-30.867-4.367-7.457-2.515-6.204-5.394 3.375-7.756 1.34-.33 2.823-.666 3.296-.747 9.175-1.557 15.251-2.19 25.53-2.666 2.107-.097 4.208-.203 4.666-.234 1.828-.126 21.68.05 24.334.216m-172.83-.07c7.662.48 11.276.797 15.334 1.346 1.008.136 2.433.327 3.166.424 1.23.163 2.365.355 5 .843 21.683 4.022 11.718 10.33-19.833 12.553-11.656.822-31.044.79-41.167-.07-1.1-.095-2.975-.253-4.166-.353-17.879-1.499-28.942-5.13-25.32-8.31 1.603-1.408 5.888-2.922 10.82-3.822 2.96-.54 3.784-.68 5-.84l3.166-.42c5.517-.733 13.945-1.378 20.917-1.602 6.091-.195 22.384-.045 27.083.25m147.17-3.232c-23.42.895-40.084 3.832-44.042 7.764l-.875.87.004 4.72.002 4.718 1.774 1.25c.975.688 1.854 1.326 1.955 1.42.1.092.52.43.932.747 6.784 5.24 13.751 14.45 17.151 22.678l.521 1.261 2.206.28c3.7.467 9.52.954 15.705 1.315 4.974.29 26.692.29 31.667 0 5.832-.34 12.197-.865 15.583-1.285l3.417-.422c2.07-.253 5.34-.795 8.167-1.355 2.348-.463 6.55-1.583 7.833-2.085 1.415-.555 3.442-1.564 3.786-1.885.198-.185.411-.336.472-.336.063 0 .311-.285.553-.634l.44-.634v-29.753l-.876-.87c-1.004-.997-2.897-1.997-5.125-2.706-.413-.13-.99-.316-1.282-.41-1.962-.638-7.399-1.8-10.468-2.24-1.008-.146-1.947-.296-2.083-.334-.455-.127-6.16-.776-11-1.25-8.338-.819-26.063-1.22-36.417-.824m-173.17-.247c-.458.032-2.67.137-4.916.234-7.557.327-12.003.701-20 1.684-10.545 1.295-18.778 3.676-20.984 6.07l-.683.74v14.884c0 16.125-.055 15.065.828 15.97 1.772 1.815 7.591 3.722 15.422 5.053 3.14.534 4.553.747 6.167.93.916.104 2.566.295 3.666.423 1.1.13 2.975.312 4.167.407 1.192.095 3.112.251 4.267.345 10.52.865 32.944.868 43.023.007 1.031-.088 3.04-.252 4.46-.363 1.421-.112 3.47-.322 4.553-.468l1.97-.264.628-1.5c.955-2.285 2.607-5.473 3.928-7.583.668-1.065 1.67-2.582 1.762-2.667.05-.046.55-.72 1.11-1.5.558-.779 1.155-1.579 1.324-1.778.17-.198.451-.535.626-.749 3.382-4.137 9.004-9.1 13.474-11.895l.791-.494v-4.22c.001-4.444-.017-4.564-.81-5.418-2.108-2.264-10.55-4.664-20.856-5.93-7.565-.929-10.1-1.15-19.5-1.7-2.877-.17-22.57-.344-24.417-.218m147.92-56.43v37h46.167v-13h-31.834v-61h-14.333v37M124.755 7.282v6.334h23V74.95h14.334V13.617h23V.95h-60.334v6.333m-61.5 30.667v37h55.5v-12.5H77.422v-18.5h36v-12.5h-36V13.283h40V.95H63.255v37" fill="#FFF" fill-rule="evenodd"/></svg>