<svg width="283" height="205" viewBox="0 0 283 205" xmlns="http://www.w3.org/2000/svg"><path d="M182.899 139.444c-2.492.376-3.339.547-4.917.994-.687.195-1.475.415-1.75.49-1.093.295-3.747 1.41-5.217 2.19-2.861 1.52-3.887 2.292-17.866 13.437-.138.109-.963.772-1.834 1.472a547.484 547.484 0 0 1-4.458 3.564c-1.926 1.526-1.956 1.596-1.06 2.47.356.347 1.89 1.85 3.408 3.339 3.132 3.075 3.163 3.087 4.444 1.708.046-.05.533-.463 1.083-.92.55-.456 1.037-.871 1.083-.922.327-.364 6.663-5.342 7.834-6.153.32-.223.62-.451.666-.506.225-.273 6.137-4.26 7.291-4.915l1.817-1.044c8.894-5.121 14.857-6.028 22.089-3.362 1.722.635 4.879 2.308 5.303 2.809.046.055.384.32.75.59 7.047 5.195 10.092 14.367 7.775 23.424-2.603 10.173-14.294 17.456-24.895 15.508-5.672-1.042-14.763-6.09-23.463-13.028-5.216-4.161-7.519-6.155-12.683-10.98-1.007-.968-2.01-1.94-3.009-2.917-5.256-5.126-8.396-8.034-10.453-9.683-.23-.184-.452-.377-.667-.577a21.477 21.477 0 0 0-1.105-.917c-.458-.361-.87-.695-.916-.743-.115-.118-1.974-1.635-2.755-2.247a261.204 261.204 0 0 1-4.245-3.476c-.383-.32-.772-.632-1.167-.938a19.567 19.567 0 0 1-.941-.762c-1.617-1.537-7.286-4.577-10.699-5.74-19.491-6.632-40.671 4.647-43.818 23.333l-.295 1.75-47.747.084v-8.31l-.439-.345c-.979-.77-2.129-.381-5.143 1.738C.534 169.957-.018 170.386-.018 171.437c0 1.294.709 1.97 5.245 5.005.205.137.553.378.773.536 12.116 8.666 12.09 8.65 13.32 8.38 1.147-.252 1.162-.316 1.162-4.922v-4.161h47.795l.108.792c3.045 22.456 29.46 34.089 49.239 21.687 1.407-.883 5.125-3.628 10.964-8.093.263-.2 1.527-1.162 2.811-2.135.946-.717 1.89-1.436 2.833-2.157.742-.573 2.685-2.045 3.917-2.964a53.95 53.95 0 0 0 1.378-1.054c.163-.135.875-.668 1.584-1.185a69.01 69.01 0 0 0 1.409-1.045c.067-.058-1.476-1.701-3.429-3.654l-3.551-3.547-1.238 1.03c-.68.568-1.274 1.082-1.32 1.142-.046.06-.796.702-1.667 1.425-.87.723-1.658 1.396-1.75 1.495-.091.1-.578.519-1.081.93-.504.413-1.104.914-1.334 1.113-.23.2-.906.743-1.501 1.204-17.003 13.178-25.158 15.55-35.539 10.338-9.241-4.641-14.543-16.045-11.656-25.072.088-.274.283-.917.433-1.427 3.204-10.881 16.859-17.811 27.787-14.101 2.697.916 6.389 2.778 9.641 4.863 5.353 3.43 12.725 8.764 14.167 10.248.385.338.773.67 1.167.999.619.523 1.23 1.056 1.833 1.597l2 1.826c.688.627 2.449 2.27 3.914 3.65 5.307 5.004 9.266 8.55 11.641 10.429.174.137.401.328.506.423.311.284 6.448 4.954 7.439 5.66.835.596 5.553 4.075 7.583 5.592 8.716 6.514 17.991 8.997 27.378 7.332 1.828-.324 6.001-1.54 6.812-1.984.171-.094.91-.451 1.644-.793 9.112-4.261 15.941-13.567 17.505-23.855l.107-.71h41.471v4.162c0 4.606.015 4.67 1.162 4.922.818.179 3.621-1.2 4.809-2.367.122-.12.367-.295.544-.39.177-.094 1.427-.968 2.779-1.941 1.352-.972 3.918-2.79 5.706-4.04 7.407-5.18 7.391-4.803.4-9.812-2.3-1.648-4.511-3.204-4.913-3.457-.401-.254-.83-.562-.954-.685-.123-.122-.279-.224-.346-.224-.069 0-.271-.137-.452-.305a7.148 7.148 0 0 0-.823-.624 98.482 98.482 0 0 1-2.329-1.638c-2.889-2.08-4.173-2.518-5.144-1.754l-.439.345v8.31l-41.416-.084-.194-1.28c-2.545-16.7-19.494-28.606-36.973-25.968m-113.55-37.71c-5.337 2.174-3.871 9.875 1.88 9.875 5.41 0 6.995-7.31 2.104-9.702-1.027-.503-2.968-.587-3.984-.173m145.321-.783c-3.792.763-5.279 5.73-2.559 8.546 2.422 2.51 6.626 1.968 8.192-1.055a5.157 5.157 0 0 0-5.633-7.491m-71.791-.668c-4.206.818-5.693 5.749-2.64 8.754 1.842 1.812 4.843 1.894 6.828.186 3.852-3.314.764-9.903-4.188-8.94M218.728 51.3c-.64.35-.75.666-.75 2.154 0 1.179.059 1.524.319 1.844l.318.393h15.059l.418-.486c.639-.743.535-3.094-.165-3.695l-.467-.402-7.2.005c-4.888.003-7.306.063-7.532.187m-6.681.045c-2.139.93-1.609 4.177.715 4.38 2.537.222 3.582-3.18 1.315-4.277-.812-.393-1.308-.418-2.03-.103m-12.484-.035c-2.153 1.248-1.381 4.362 1.082 4.362 2.359 0 3.208-2.941 1.226-4.248-.539-.355-1.785-.417-2.308-.114m5.998.01c-2.182 1.228-1.315 4.288 1.216 4.288 2.467 0 3.05-3.458.748-4.438-.745-.318-1.19-.284-1.964.15m-132.49.045c-.637.637-.633 2.803.007 3.563l.432.513h14.785l.458-.394c.761-.655.798-2.942.06-3.734l-.346-.372H73.495l-.424.424m-6.637-.068c-2.191 1.634-.171 5.22 2.284 4.055 1.653-.784 1.887-3.04.424-4.081-.646-.46-2.076-.446-2.708.026m-6.054-.294c-.284.129-.678.495-.875.814-1.605 2.597 2.159 5.043 3.875 2.517 1.319-1.94-.822-4.318-3-3.331m-5.653-.094c-2.496.856-1.925 4.534.703 4.53 1.642 0 2.783-1.695 2.149-3.192-.435-1.03-1.837-1.687-2.852-1.338m91.574.019c-.793.792-.688 3.312.165 3.966.198.152 2.106.204 7.647.208l7.382.006.409-.41c.365-.364.409-.55.407-1.708-.005-2.718.547-2.55-8.328-2.55h-7.195l-.487.488m-6.262-.221c-2.264 1.117-1.631 4.412.844 4.395.945-.007 1.413-.211 1.895-.828 1.463-1.872-.635-4.604-2.739-3.567m-7.02.305c-.865.793-.93 2.419-.129 3.255 1.476 1.54 3.987.606 3.987-1.483 0-2.095-2.335-3.168-3.858-1.772m-5.629-.26c-2.031 1.238-1.191 4.356 1.173 4.356 1.338 0 2.25-.942 2.25-2.324 0-1.847-1.889-2.968-3.423-2.032m71.884-9.717c-1.293.702-1.312 3.07-.033 3.915.576.379 33.304.52 34.106.146 1.444-.671 1.444-3.472 0-4.144-.666-.31-33.497-.23-34.073.083m-145.07-.38c-1.407.789-1.461 3.412-.085 4.148.74.396 33.636.319 34.224-.08 1.271-.863 1.214-3.168-.098-3.968-.644-.392-33.347-.49-34.041-.1m73.174-.383c-.951.384-1.445 1.89-1.001 3.05.529 1.387-.888 1.286 18.003 1.286h16.763l.532-.476c1.028-.917.816-3.166-.354-3.772-.554-.286-33.242-.371-33.943-.088m72.316-9.766c-1.022.936-.862 2.979.285 3.657.716.422 33.448.428 34.163.005 1.365-.806 1.351-3.238-.025-4.002-.306-.17-3.825-.214-17.096-.22l-16.711-.005-.616.565m-144.82-.634c-1.561.77-1.415 3.48.225 4.175.924.392 32.923.33 33.713-.065 1.512-.755 1.512-3.327 0-4.082-.842-.421-33.088-.447-33.938-.028m73.1-.311c-1.531 1.064-1.37 3.462.278 4.15.817.342 32.637.342 33.454 0 1.6-.668 1.834-3.19.38-4.088-.804-.498-33.401-.557-34.112-.062M235.624 7.88c2.246.563 3.95 1.945 4.987 4.045l.618 1.25v97.684l-.522 1.083c-.664 1.377-1.543 2.388-2.759 3.174-1.915 1.237-.82 1.182-21.886 1.126l-18.833-.05-1.25-.622c-1.893-.942-3.047-2.167-3.763-3.991l-.405-1.038.042-48.758.043-48.758.535-1.095c1.017-2.077 2.614-3.398 4.838-3.998 1.644-.443 36.606-.49 38.355-.052m-71.755-.521c2.639.687 4.741 3.014 5.26 5.826.31 1.669.248 95.176-.063 96.642-.484 2.286-1.967 4.176-4.057 5.168l-1.113.53h-38.834l-.956-.448c-2.364-1.108-3.856-2.944-4.293-5.282-.232-1.245-.231-95.636.001-96.872.494-2.63 3.003-5.226 5.499-5.691 1.257-.235 37.627-.115 38.556.127m-71.353.472c1.548.767 2.632 1.876 3.469 3.544l.577 1.15.045 48.917c.03 32.93-.011 49.179-.126 49.72-.489 2.307-2.218 4.265-4.691 5.317l-.894.38h-38l-1.276-.551c-1.631-.704-3.065-2.072-3.847-3.671l-.544-1.112-.043-49.074c-.048-54.296-.131-50.101 1.036-51.926 1.006-1.573 3.007-3.011 4.59-3.3.23-.041 8.967-.066 19.417-.054l19 .02 1.287.64m104.88-6.44c-6.516.932-11.266 5.796-11.931 12.218-.333 3.208-.118 97.41.224 98.583 1.584 5.422 5.233 8.968 10.455 10.155 1.01.23 3.511.262 20.451.26h19.301l1.5-.403c4.994-1.347 8.547-4.836 9.852-9.68.305-1.13.314-2.68.314-50.665v-49.5l-.471-1.404c-1.302-3.892-3.531-6.48-7.138-8.292-.834-.42-1.09-.511-2.807-1.016-.874-.256-38.07-.495-39.75-.255m-72.75-.51c-5.166.828-9.175 4.476-10.964 9.977-.326 1.003-.534 97.177-.215 99.607.785 5.989 5.732 10.744 11.929 11.467 2.03.238 36.151.24 38.087.003 6.346-.775 11.136-5.457 11.986-11.714.312-2.304.24-96.134-.077-98.084-.866-5.341-4.417-9.268-9.996-11.057-.633-.203-39.54-.392-40.75-.198m-72.834.06c-5.045.87-9.54 5.18-10.773 10.332-.377 1.573-.584 96.145-.219 99.576.631 5.922 4.23 10.204 10.076 11.986 1.163.354 1.23.355 20.916.355h19.75l1.334-.393c4.755-1.401 7.95-4.487 9.53-9.203l.47-1.404v-100.5l-.458-1.351c-1.72-5.074-5.71-8.59-10.658-9.393C90.539.747 52.98.743 51.812.944" fill="#FFF" fill-rule="evenodd"/></svg>