<svg data-name="Layer 1" height="64" id="Layer_1" viewBox="0 0 64 64" width="64" xmlns="http://www.w3.org/2000/svg"><defs><style>.cls-1{fill:#fff}</style></defs><path class="cls-1" d="M22.59 12.12a7.62 7.62 0 0 0-1.92 2.5 11 11 0 0 0-.75 2.87c0 .13.58.13.79.08s0-.46.5-2.25a6.21 6.21 0 0 1 1.88-2.83c.13-.2-.26-.54-.5-.37zm8.08-1.79c-7.21 1.88-7.62 7.75-4.62 11.92S38 24 38.68 17.79a6.64 6.64 0 0 0-8-7.46zm6.16 7.32c-.5 4.65-7.15 6.41-9.38 3.31s-1.92-7.46 3.44-8.86a4.94 4.94 0 0 1 5.95 5.55zm-5.63-2.93c-2.64.69-2.79 2.84-1.69 4.37s4.38.66 4.63-1.63a2.43 2.43 0 0 0-2.93-2.74zm4.93 12.07A7.62 7.62 0 0 1 30.88 29a5.79 5.79 0 0 1-5.17-2.46c-.33 0-1 .83-1 1s1.92 2.83 6 3.08 6.21-2.08 6.29-2.5-.53-1.37-.87-1.33zM50.55 5.66a2.55 2.55 0 0 0-2 3l-5.54 3.71A14.55 14.55 0 0 0 41 10a18.54 18.54 0 0 0-11.16-3 14.41 14.41 0 0 0-9.33 4l-5.13-2.29s.5-1.42-.5-2.12a3.93 3.93 0 0 0-4.54.33 2.9 2.9 0 0 0 .75 4.71 2.3 2.3 0 0 0 2.75-.46l4.54 2.5a8.94 8.94 0 0 0-1.08 2.08 18.89 18.89 0 0 0-.87 3.71s-.79-.12-2.42 1.42-1.42 3.88-.33 4.79 3.75.83 3.75.83.08 2.5 3.46 5.79 9.71 3 9.71 3v2.83l-.62.17a4.94 4.94 0 0 0-2.5 2c-1 1.46-2 6.54-2 6.54a2.9 2.9 0 0 0-1.5 1c-.54.79-.71 2.71.54 3.5a2.21 2.21 0 0 0 3.33-1.62 2.44 2.44 0 0 0-1.33-2.37s0-.42.21-1.62a14.88 14.88 0 0 1 2.17-5.58c1.08-1.33 1.58-.79 1.58-.79s-1.64 8.36-1.68 11.15a4.45 4.45 0 0 0 1.88 3.92v1.25s-.25-.17-1.54.13a1.48 1.48 0 0 0-.75 2.42c.58.58 2.54.21 3-.08s0-3.5 0-3.5l1 .17s.17 2.67.17 2.83.21.54 1.38.75 2.83-.75 2.38-2-2.83-.92-2.83-.92l-.08-1a5.69 5.69 0 0 0 1.75-3.25c.25-2-1.67-11-1.62-11.17s.38-.25.83.13a36.36 36.36 0 0 1 2.42 4.13 2.33 2.33 0 0 0 1.71.71c.58-.08 3.88-3.29 3.88-3.29S45.09 42 45.8 40s-.87-4-3.37-2.79-.67 3.88-.67 3.88a3.18 3.18 0 0 1-.87.92c-.62.46-2.17 1.83-2.58 1.83S36.84 42 36 40.5a4.35 4.35 0 0 0-2.58-2l-.33-3.62a19.38 19.38 0 0 0 7.71-2.83 9.43 9.43 0 0 0 4.46-6.29s4-.54 4.13-4-3.58-3.29-3.58-3.29 0-.62-.12-1.21a9.35 9.35 0 0 0-.75-1.87L50.26 11a3.55 3.55 0 0 0 1 .42 3 3 0 1 0-.75-5.75zm-39 5a1.9 1.9 0 0 1 .29-3.46 1.7 1.7 0 0 1 2.38 1.29 1.9 1.9 0 0 1-2.63 2.13zm5.13 14.54c-.21 0-1.71.17-2-1.21A2.44 2.44 0 0 1 16.22 21c.22-.07.13 1.42.33 2.46s.38 1.7.17 1.7zm10.16 24.3a1.26 1.26 0 0 1-1.71 1c-.62-.37-.87-2.12.33-2.37.71-.13 1.38.62 1.38 1.37zM43.55 38A1.46 1.46 0 0 1 45 39.29c0 .75-1.5 1.5-2 1.25s-.7-2.29.55-2.54zm2.54-16.12a8.59 8.59 0 0 1 0-1.92 1.55 1.55 0 0 1 1.92 1.38c.29 1.63-2.25 2.92-2.37 2.75s.41-1.43.45-2.22zm-31-11.08c-.08-.17.33-1 .33-1 .21 0 4.13 1.75 4 2.08s-.5.88-.62.79-3.62-1.67-3.71-1.88zm18.46 41c-.42.83-2.58 1.42-3 0S31.55 37 32 37c.14-.06 2 14 1.55 14.79zM43.8 23.54a9.07 9.07 0 0 1-.62 2.08 15 15 0 0 0-1.62-2.21c-.21 0-.75.38-.54.58a13.74 13.74 0 0 1 1.83 2.75c-.08.25-.79 1.42-.79 1.42a21.71 21.71 0 0 0-1.83-2.67c-.17 0-.71.42-.62.54a20 20 0 0 1 1.88 3.13c-.12.21-1 1.08-1.08.92A20.34 20.34 0 0 0 39 27.75c-.12 0-.58.21-.5.42s1.54 2.46 1.38 2.67a7.51 7.51 0 0 1-1 .75s-.83-2-1-2-.92.38-.83.5 1.08 1.79.92 2a3 3 0 0 1-.58.38L36.22 31l-.58.38s.92 1.42.75 1.46l-.83.25s-.5-1.12-.67-1.17-.83 0-.71.12a9.22 9.22 0 0 1 .54 1.21 19.21 19.21 0 0 1-7.79 0 10.77 10.77 0 0 1-8.33-8.79 15.86 15.86 0 0 1 1.83-11.33c1.46-2.33 4-3.33 6.58-4.25 3-1.08 8.5-.67 12.87 2.25s4.05 11.45 3.92 12.41zm5.38-12.87c-.21.21-4.46 3.83-4.58 3.63S44 13 44 13c.17-.08 4.42-3.46 4.67-3.21s.71.67.51.87zm1.54-.67A1.9 1.9 0 0 1 51 6.58a1.7 1.7 0 0 1 2.38 1.29A1.9 1.9 0 0 1 50.72 10z" id="alien-4"/></svg>