<svg xmlns="http://www.w3.org/2000/svg" viewBox="0 0 342.412 700.544"><defs><style>.astro-1,.astro-2{fill:none;stroke-miterlimit:10}.astro-3{fill:#81c2ed}.astro-4{fill:#eaeaea}.cls-4{fill:#fff}.astro-5{fill:#2996dd}.cls-6{fill:#e30c34}.cls-10{fill:#2486c5}.cls-11{fill:#1e2969}.cls-12{fill:#4a60b2}.astro-1,.astro-2{stroke:#2486c5;stroke-width:4.832px;stroke-linecap:round}.astro-2{stroke:#4a60b2;stroke-width:5.369px}</style></defs><g id="Group_221" data-name="Group 221" transform="translate(-955.03 -506.891)"><path id="Path_286" data-name="Path 286" d="M1231.134 625.47h16.489a15.274 15.274 0 0 1 15.437 15.086l1.049 124.194-43.5.351" stroke="#2996dd" stroke-width="4.368" fill="none" stroke-miterlimit="10"/><path id="Path_287" data-name="Path 287" class="astro-3" d="M234.114 201.105a24.333 24.333 0 0 1-24.207 24.558l-167 1.053a24.333 24.333 0 0 1-24.558-24.207L17.3 34.811a24.333 24.333 0 0 1 24.207-24.558L208.5 9.2a24.333 24.333 0 0 1 24.558 24.207z" transform="translate(998.073 540.49)"/><g id="Group_195" data-name="Group 195" transform="translate(1149.04 741.946)"><path id="Path_288" data-name="Path 288" class="astro-4" d="M139.951 296.251l56.484-.351-1.052-163.137A69.476 69.476 0 0 0 125.917 64l-70.517.351.351 56.484 70.517-.351a12.577 12.577 0 0 1 12.63 12.63z" transform="translate(-55.4 -64)"/></g><path id="Path_290" data-name="Path 290" class="cls-4" d="M88.6 118.257a23.881 23.881 0 0 0 23.857 23.857l-.351-47.714c-12.981 0-23.506 10.876-23.506 23.857z" transform="translate(1176.916 754.199)"/><g id="Group_196" data-name="Group 196" transform="translate(1232.889 864.036)"><path id="Path_291" data-name="Path 291" class="astro-5" d="M79.3 115.991l56.133-.351a8.42 8.42 0 1 0 0-16.84l-56.133.351z" transform="translate(-79.3 -98.8)"/></g><path id="Path_292" data-name="Path 292" class="cls-4" d="M132.777 109.807a32.012 32.012 0 0 1-21.05 8.069A32.652 32.652 0 0 1 79.1 85.95a31.717 31.717 0 0 1 7.718-21.05 68.5 68.5 0 0 1 45.959 44.907z" transform="translate(1153.087 680.204)"/><g id="Group_208" data-name="Group 208" transform="translate(1255.95 810.244)"><path id="Rectangle_75" data-name="Rectangle 75" class="cls-6" transform="rotate(179.595 16.597 3.567)" d="M0 0h32.978v7.017H0z"/><path id="Rectangle_76" data-name="Rectangle 76" class="cls-6" transform="rotate(179.595 16.481 9.255)" d="M0 0h32.978v7.017H0z"/><path id="Rectangle_77" data-name="Rectangle 77" class="cls-6" transform="rotate(179.595 16.541 14.943)" d="M0 0h32.978v7.017H0z"/></g><path id="Path_293" data-name="Path 293" class="cls-4" d="M220.929 76.576A11.758 11.758 0 0 1 209.351 88.5L31.479 89.9a11.758 11.758 0 0 1-11.928-11.57l-.351-41.4A11.758 11.758 0 0 1 30.777 25l177.872-1.4a11.758 11.758 0 0 1 11.928 11.577z" transform="translate(1002.839 576.61)"/><circle id="Ellipse_58" data-name="Ellipse 58" class="astro-4" cx="90.866" cy="90.866" r="90.866" transform="rotate(-34.45 1480.677 -1301.207)"/><circle id="Ellipse_59" data-name="Ellipse 59" cx="70.517" cy="70.517" r="70.517" transform="rotate(-63.43 1051.894 -499.374)" fill="#82878c"/><circle id="Ellipse_60" data-name="Ellipse 60" cx="60.343" cy="60.343" r="60.343" transform="rotate(-68.1 1015.234 -439.209)" fill="#50555a"/><path id="Path_294" data-name="Path 294" d="M137.1 22.7a70.426 70.426 0 0 1 2.807 17.191 60.118 60.118 0 0 1-59.992 60.694c-19.647 0-37.539-9.122-48.415-23.857a60.491 60.491 0 0 0 118.23-18.243A60.657 60.657 0 0 0 137.1 22.7z" transform="translate(1033.691 574.352)" fill="#373c41"/><path id="Rectangle_78" data-name="Rectangle 78" class="astro-4" transform="rotate(-.405 104481.556 -145640.974)" d="M0 0h185.59v237.513H0z"/><path id="Rectangle_79" data-name="Rectangle 79" class="cls-10" transform="rotate(-.405 134555.18 -145726.945)" d="M0 0h76.131v251.196H0z"/><path id="Rectangle_80" data-name="Rectangle 80" class="cls-10" transform="rotate(-.405 134510.631 -161262.31)" d="M0 0h76.131v251.196H0z"/><g id="Group_198" data-name="Group 198" transform="translate(962.394 742.998)"><path id="Path_297" data-name="Path 297" class="astro-4" d="M59.739 296.9l-56.484.351L2.2 134.116a68.8 68.8 0 0 1 68.765-69.465l70.517-.351.351 56.133-70.517.351a12.577 12.577 0 0 0-12.63 12.63z" transform="translate(-2.199 -64.3)"/></g><path id="Path_298" data-name="Path 298" class="cls-11" d="M99.031 216.09a38.066 38.066 0 0 0-76.131.351v17.191l76.131-.7z" transform="translate(1012.119 964.396)"/><path id="Rectangle_83" data-name="Rectangle 83" class="cls-12" transform="rotate(-.405 170043.574 -145870.598)" d="M0 0h76.131v9.122H0z"/><circle id="Ellipse_61" data-name="Ellipse 61" class="cls-4" cx="38.241" cy="38.241" r="38.241" transform="rotate(-61.564 1421.938 -313.44)"/><path id="Line_7" data-name="Line 7" class="astro-1" transform="translate(1033.967 1070.325)" d="M0 .702L76.481 0"/><path id="Rectangle_84" data-name="Rectangle 84" class="cls-10" transform="rotate(-.405 131333.598 -145653.73)" d="M0 0h185.941v22.453H0z"/><path id="Path_304" data-name="Path 304" class="cls-12" d="M59.235 157.232a28.243 28.243 0 1 1-56.484.351L2.4 122.851l56.484-.351z" transform="translate(960.699 824.683)"/><path id="Line_8" data-name="Line 8" class="astro-2" transform="translate(1010.11 956.655)" d="M0 0l15.437 22.102"/><path id="Path_305" data-name="Path 305" class="astro-3" d="M208.392 122.1L22.1 123.5l77.534 24.909 33.68-.351z" transform="translate(1010.113 823.679)"/><path id="Path_307" data-name="Path 307" class="cls-4" d="M26.157 118.857A23.66 23.66 0 0 1 2.3 142.713V95a23.881 23.881 0 0 1 23.857 23.857z" transform="translate(960.448 755.704)"/><g id="Group_199" data-name="Group 199" transform="translate(955.03 865.79)"><path id="Path_308" data-name="Path 308" class="astro-5" d="M64.653 116.14l-56.133.351a8.42 8.42 0 0 1 0-16.84l56.133-.351z" transform="translate(-.1 -99.3)"/></g><g id="Group_202" data-name="Group 202" transform="translate(959.523 928.372)"><path id="Rectangle_89" data-name="Rectangle 89" class="astro-5" transform="rotate(-.405 64.086 .227)" d="M0 0h64.202v18.945H0z"/></g><path id="Path_318" data-name="Path 318" class="cls-4" d="M3 111.259a31.717 31.717 0 0 0 21.05 7.718A32.315 32.315 0 0 0 47.907 65.3C26.857 71.966 9.666 89.507 3 111.259z" transform="translate(962.204 681.207)"/><path id="Path_319" data-name="Path 319" class="cls-11" d="M130.431 215.89a38.066 38.066 0 0 0-76.131.351v17.191l76.131-.7z" transform="translate(1090.881 963.895)"/><path id="Rectangle_93" data-name="Rectangle 93" class="cls-12" transform="rotate(-.405 169999.486 -161456.043)" d="M0 0h76.131v9.122H0z"/><path id="Path_320" data-name="Path 320" class="cls-4" d="M54.1 185.2a38.242 38.242 0 1 0 37.894-38.6A38.108 38.108 0 0 0 54.1 185.2z" transform="translate(1090.375 885.13)"/><path id="Line_9" data-name="Line 9" class="astro-1" transform="translate(1144.479 1069.623)" d="M76.481 0L0 .702"/><path id="Path_321" data-name="Path 321" class="cls-12" d="M79.751 157.083c0 15.437 12.981 28.067 28.417 28.067a28.225 28.225 0 0 0 28.067-28.417L135.884 122l-56.484.351z" transform="translate(1153.839 823.429)"/><path id="Line_10" data-name="Line 10" class="astro-2" transform="translate(1228.328 955.252)" d="M15.086 0L0 22.102"/><g id="Group_205" data-name="Group 205" transform="translate(1229.323 926.617)"><path id="Rectangle_94" data-name="Rectangle 94" class="astro-5" transform="rotate(-.405 64.228 .227)" d="M0 0h64.202v18.945H0z"/></g><rect id="Rectangle_104" data-name="Rectangle 104" class="cls-10" width="200.615" height="33.436" rx="3" transform="translate(1023.312 700.396)"/><path id="Rectangle_81" data-name="Rectangle 81" class="cls-12" transform="rotate(-.405 111165.862 -150251.414)" d="M0 0h120.686v116.827H0z"/><path id="Rectangle_82" data-name="Rectangle 82" class="cls-4" transform="rotate(-.405 110371.788 -150254.22)" d="M0 0h120.686v116.827H0z"/><path id="Rectangle_85" data-name="Rectangle 85" class="astro-5" transform="rotate(-.405 112575.582 -152078.214)" d="M0 0h48.766v43.005H0z"/><path id="Path_300" data-name="Path 300" class="cls-12" d="M59.809 107.59a12.456 12.456 0 1 1-12.63-12.279 12.277 12.277 0 0 1 12.63 12.279z" transform="translate(1043.673 756.445)"/><path id="Path_301" data-name="Path 301" d="M76.675 109.987A15.787 15.787 0 1 1 60.887 94.2a15.948 15.948 0 0 1 15.788 15.787z" transform="translate(1066.35 753.697)" fill="#d8d8d8"/><path id="Path_302" data-name="Path 302" class="cls-6" d="M66.1 105.486a9.649 9.649 0 1 1-9.823-9.472 9.309 9.309 0 0 1 9.823 9.472z" transform="translate(1070.615 758.199)"/><g id="Group_207" data-name="Group 207" transform="translate(1138.534 791.6)"><path id="Path_2" data-name="Path 2" class="cls-6" d="M78.9 65.13v21.043l18.225 10.513 18.225-10.513V65.13L97.125 54.6z" transform="translate(-78.9 -54.6)"/><path id="Path_3" data-name="Path 3" class="cls-4" d="M127.05 96.2l-12.15 7.02v7l6.075-3.493v14.023l6.075 3.51v-21.04l6.075-3.51z" transform="translate(-108.825 -89.18)"/><path id="Path_4" data-name="Path 4" class="cls-4" d="M222.9 141.21v14.04l6.075-3.51v-14.023l-.017-.017z" transform="translate(-198.6 -123.677)"/></g><path id="Path_322" data-name="Path 322" class="cls-12" d="M59.809 107.59a12.456 12.456 0 1 1-12.63-12.279 12.277 12.277 0 0 1 12.63 12.279z" transform="translate(1114.906 756.445)"/><g id="Group_217" data-name="Group 217" transform="translate(1080.007 796.342)"><g id="Group_216" data-name="Group 216"><g id="Group_215" data-name="Group 215" transform="translate(1.948)"><ellipse id="Ellipse_63" data-name="Ellipse 63" class="cls-4" cx="9.778" cy="8.605" rx="9.778" ry="8.605" transform="translate(0 8.605)"/><ellipse id="Ellipse_64" data-name="Ellipse 64" class="cls-4" cx="5.085" cy="5.085" rx="5.085" ry="5.085" transform="translate(4.694)"/></g><path id="Rectangle_107" data-name="Rectangle 107" class="astro-5" transform="translate(0 16.291)" d="M0 0h24.436v11.404H0z"/></g><path id="Rectangle_108" data-name="Rectangle 108" class="cls-4" transform="translate(24.713)" d="M0 0h17.496v1.986H0z"/><path id="Rectangle_109" data-name="Rectangle 109" class="cls-4" transform="translate(24.713 4.772)" d="M0 0h17.496v1.986H0z"/><path id="Rectangle_110" data-name="Rectangle 110" class="cls-4" transform="translate(24.713 9.543)" d="M0 0h17.496v1.986H0z"/><path id="Rectangle_112" data-name="Rectangle 112" class="cls-4" transform="translate(24.713 14.315)" d="M0 0h17.496v1.986H0z"/></g><path id="Rectangle_113" data-name="Rectangle 113" class="cls-12" transform="rotate(-.405 116277.531 -152091.161)" d="M0 0h48.766v16.838H0z"/><path id="Rectangle_114" data-name="Rectangle 114" class="cls-4" transform="translate(1104.721 824.036)" d="M0 0h17.445v7.195H0z"/><path id="Rectangle_115" data-name="Rectangle 115" class="cls-4" transform="translate(1081.461 824.036)" d="M0 0h7.85v7.195H0z"/><path id="Rectangle_116" data-name="Rectangle 116" class="cls-4" transform="translate(1093.091 824.036)" d="M0 0h7.85v7.195H0z"/></g></svg>