<svg height="64" viewBox="0 0 64 64" width="64" xmlns="http://www.w3.org/2000/svg"><g fill="#3d6cb9"><path d="M62.37 54.759L42.63 35.015c-2.614-2.614-1.352-4.534-1.352-4.534l-.012-.013a4.81 4.81 0 0 0-.911-5.508l-7.684-7.684a4.829 4.829 0 0 0-6.831 0l-1.174 1.172-.125.126s-.539 1.072 1.918 1.215l.001.003s1.13.096 2.234 1.2l2.72 2.72c.994.993 1.021 2.029.975 2.495a6.501 6.501 0 0 1-1.808 3.495 6.48 6.48 0 0 1-3.471 1.797c-.563.052-1.634-.045-2.82-1.231l-2.062-2.065c-1.299-1.299-1.575-2.975-1.575-2.975h-.003c-.503-2.279-1.191-1.569-1.191-1.569l-1.3 1.3a4.832 4.832 0 0 0-.001 6.831l7.683 7.682c1.57 1.571 3.947 1.814 5.79.771l.014.015s1.691-1.069 3.967 1.209l20.486 20.489s2.49 2.445 4.839.097l1.938-1.938c.655-.732 2.042-2.809-.505-5.356z"/><path d="M40.965 52.071c-1.226-1.458-3.194-.554-3.194-.554l-.005-.013c-.168.057-.333.124-.504.177-.054.02-.088.042-.151.067-2.688.99-2.713 3.034-2.713 3.034v2.397c-.038 2.04-1.666 2.398-2.508 2.452h-.975c-2.092.042-2.467-1.237-2.521-1.921v-2.76c0-2.538-2.833-3.239-2.833-3.239l.009-.012a20.732 20.732 0 0 1-4.348-1.873c-.057-.025-.102-.04-.164-.071-2.293-1.149-4.002.472-4.002.472l-1.949 1.949c-1.361 1.356-2.368.724-2.737.389l-.157-.159-.006-.008h-.001l-1.601-1.601c-.001-.003-.003-.003-.006-.006-1.253-1.251.377-2.972.594-3.189l1.901-1.899.001-.005c1.465-1.465.314-3.746.314-3.746l.019-.003a20.695 20.695 0 0 1-1.766-4.223c-.014-.039-.03-.064-.045-.105-.965-2.668-3.399-2.623-3.446-2.623l-1.847.008c-2.162.003-2.551-1.402-2.609-2.141l-.005-1.489c.013-.615.236-2.355 2.423-2.374h.001l2.367-.01s2.231.104 3.023-2.273c.011-.03.026-.046.036-.076a20.459 20.459 0 0 1 2.05-4.942v-.003c1.13-2.273-.484-3.978-.695-4.185l-1.61-1.608-.003-.004c-1.553-1.553-.489-2.899-.12-3.283l.839-.839s1.77-1.874 3.644 0c.003 0 .003.001.005.003l1.83 1.83c.345.327 1.753 1.472 3.773.491l.018-.006a20.647 20.647 0 0 1 4.153-1.758c.039-.016.06-.035.104-.053 2.344-.921 2.781-2.366 2.846-3.113V6.441c.013-.457.188-2.256 2.289-2.256h1.314s2.397-.08 2.397 2.589v2.062c.013.588.218 2.547 2.478 3.344l.01.005c1.368.377 2.673.907 3.911 1.547l.013-.011s2.82 1.75 4.949-.377l1.424-1.424c.066-.066 1.993-1.932 3.434-.491.003.001.006.003.006.006l1.18 1.177s1.431 1.742-.371 3.545l-1.595 1.595s-1.663 1.704-.455 4.286c.021.045.021.072.04.116a20.615 20.615 0 0 1 1.745 4.279l.02-.016s.516 2.59 2.826 2.584l2.242-.01h.161c.065-.001 2.738-.044 2.744 2.481l.007 1.061v.264c-.022.625-.32 2.187-2.805 2.196l-2.15.007c-1.681.016-2.517 1.393-2.885 2.269-.14.383-.467 1.625.719 2.792l.305.3.014.013c1.772 1.9 3.037-.761 3.037-.761.804-1.336 1.979-1.604 2.608-1.647h3.279c.997 0 1.805-.807 1.805-1.805v-8.325c0-.995-.808-1.805-1.805-1.805h-3.128c-2.453 0-3.072-2.276-3.072-2.276l-.021.006a24.802 24.802 0 0 0-1.277-3.061c0-.003 0-.005-.003-.008-.827-1.82.724-3.371.809-3.452l1.996-2a1.807 1.807 0 0 0 0-2.553l-5.886-5.886a1.807 1.807 0 0 0-2.553.001L46.7 8.25c-2.264 2.278-4.387 1.178-4.387 1.178l-.003.006a25.95 25.95 0 0 0-2.503-1.047c-.04-.019-.068-.036-.109-.053-1.893-.775-2.142-2.715-2.166-3.501V2.734c0-.997-.809-1.805-1.805-1.805h-8.665c-.995 0-1.805.808-1.805 1.805v2.609c0 2.613-2.21 3.009-2.21 3.009l.013.013a25.62 25.62 0 0 0-2.795 1.17c-.016.006-.025.003-.041.009-1.802.798-2.798.016-3.051-.229l-.062-.062-.009-.011h-.001L14.66 6.796a1.81 1.81 0 0 0-2.553-.003l-5.892 5.884a1.804 1.804 0 0 0 0 2.552l1.956 1.958s1.696 1.635.855 3.471v.003a24.86 24.86 0 0 0-1.258 2.98c-.025.053-.049.094-.074.156-.75 1.831-2.143 2.18-2.888 2.234H1.96c-.997 0-1.805.81-1.805 1.805v8.325c0 .998.808 1.805 1.805 1.805H5.2c1.833 0 2.315 1.691 2.315 1.691s.013-.031.021-.046c.375 1.167.803 2.31 1.336 3.395l-.011.005s1.145 1.941-.138 3.224v.003l-2.519 2.518a1.805 1.805 0 0 0 0 2.551l5.887 5.886a1.801 1.801 0 0 0 2.551 0l2.266-2.262.005-.007.101-.099c.311-.296 1.402-1.101 3.507-.232.022.011.035.014.055.021.803.38 1.629.726 2.475 1.023l-.01.009s2.217.66 2.217 2.887v2.732c0 .998.81 1.805 1.805 1.805h8.665c.996 0 1.805-.807 1.805-1.805v-2.992c.04-.66.333-1.906 1.886-2.517.06-.025.098-.046.145-.067.6-.209 1.176-.464 1.756-.712 1.401-.778.102-2.364.102-2.364l-.457-.542z"/></g></svg>