<svg viewBox="0 0 512 512" xmlns="http://www.w3.org/2000/svg" fill="#3d6cb9"><path d="M469.33 106.67H362.66V85.336c0-23.531-19.135-42.667-42.667-42.667h-128c-23.531 0-42.667 19.135-42.667 42.667v21.333H42.656c-23.532.001-42.667 19.136-42.667 42.667v277.33c0 23.531 19.135 42.667 42.667 42.667h426.67c23.531 0 42.667-19.135 42.667-42.667v-277.33c-.001-23.531-19.136-42.666-42.668-42.666zM170.66 85.336c0-11.76 9.573-21.333 21.333-21.333h128c11.76 0 21.333 9.573 21.333 21.333v21.333h-170.67V85.336zm320 341.33c0 11.76-9.573 21.333-21.333 21.333H42.657c-11.76 0-21.333-9.573-21.333-21.333v-155.27c6.301 3.674 13.527 5.934 21.333 5.934h170.67v32a10.66 10.66 0 0 0 10.667 10.667h64a10.66 10.66 0 0 0 10.667-10.667v-32h170.67c7.806 0 15.033-2.259 21.333-5.934v155.27zm-256-128v-42.667h42.667v42.667H234.66zm256-64c0 11.76-9.573 21.333-21.333 21.333h-170.67v-10.667a10.66 10.66 0 0 0-10.667-10.667h-64a10.66 10.66 0 0 0-10.667 10.667v10.667H42.653c-11.76 0-21.333-9.573-21.333-21.333v-85.333c0-11.76 9.573-21.333 21.333-21.333h426.67c11.76 0 21.333 9.573 21.333 21.333v85.333z"/></svg>