<svg data-name="Layer 1" id="Layer_1" viewBox="0 0 100 100" xmlns="http://www.w3.org/2000/svg"><defs><style>.cls-1{fill:#3d6cb9}</style></defs><path class="cls-1" d="M41.206 37.117a2.228 2.228 0 0 0 2.209-2.258 6.596 6.596 0 1 1 9.284 6.022 16.074 16.074 0 0 0-8.2 8.997 15.875 15.875 0 0 0-.773 8.109h6.963a2.27 2.27 0 0 0 2.228-2.395 6.604 6.604 0 0 1 .413-2.451 6.719 6.719 0 0 1 3.462-3.781 16.013 16.013 0 0 0-4.405-30.326 15.291 15.291 0 0 0-6.072.253 16.035 16.035 0 0 0-12.159 17.83h7.05z"/><circle class="cls-1" cx="48.143" cy="66.709" r="6.12"/><path class="cls-1" d="M50 4.25a41.547 41.547 0 0 0-41.5 41.5v8.5a41.5 41.5 0 0 0 83 0v-8.5A41.547 41.547 0 0 0 50 4.25zm0 6a35.375 35.375 0 1 1-35.497 35.375A35.538 35.538 0 0 1 50 10.25zm0 79.5a35.555 35.555 0 0 1-34.514-27.215 38.48 38.48 0 0 0 69.028 0A35.555 35.555 0 0 1 50 89.75z"/></svg>