<svg id="Layer_1" viewBox="0 0 74 74" xmlns="http://www.w3.org/2000/svg"><style>.st0{fill:#3d6cb9}</style><path class="st0" d="M27.1 18.3c2 5.9 5.1 7.9 7.6 8.9.7.3 1.5.5 2.2.5.8 0 1.5-.1 2.2-.4 2.5-1 5.5-3 7.5-8.9h.1c.9 0 1.6-.6 1.9-1.4 1-3 .9-5.6-.1-7.7-.3-.6-.8-1-1.4-1.1C45.7 1.9 41.5 1 37 1s-8.8.9-10.2 7.1c-.7.1-1.3.6-1.5 1.3-.8 2.5-.8 5 0 7.5.2.8 1 1.4 1.8 1.4zm1.6-6.3c.9-.1 1.6-.8 1.7-1.7C31 5.5 33 5 37 5c4 0 5.9.5 6.5 5.3.1 1 .9 1.7 1.8 1.7.1.6.1 1.4-.1 2.2-.9 0-1.7.6-1.9 1.5-1.7 6.1-4.3 7.2-5.7 7.8-.4.2-.9.2-1.3 0-1.4-.6-4-1.7-5.7-7.7-.2-.9-1-1.5-1.9-1.5-.1-.8-.1-1.5 0-2.3zM71 49.7H58.4c-1-12.8-8-19-21.4-19s-20.5 6.2-21.4 19H3c-1.1 0-2 .9-2 2s.9 2 2 2h3.5V71c0 1.1.9 2 2 2h56.9c1.1 0 2-.9 2-2V53.7H71c1.1 0 2-.9 2-2s-.9-2-2-2zm-34-15c11.3 0 16.6 4.5 17.5 15h-35c.9-10.5 6.2-15 17.5-15zM63.5 69h-53V53.7h52.9V69z"/><path class="st0" d="M26 63.3h22c1.1 0 2-.9 2-2s-.9-2-2-2H26c-1.1 0-2 .9-2 2s.9 2 2 2z"/></svg>