<svg height="64" viewBox="0 0 64 64" width="64" xmlns="http://www.w3.org/2000/svg"><defs><style>.cls-1{fill:none;stroke:#3d6cb9;stroke-linejoin:round;stroke-width:2px}</style></defs><g data-name="18-Website" id="_18-Website"><rect class="cls-1" height="62" rx="2" ry="2" width="62" x="1" y="1"/><path class="cls-1" d="M1 9h62M4 5h2M8 5h2M58 5h2"/><rect class="cls-1" height="16" rx="1" ry="1" width="52" x="6" y="14"/><rect class="cls-1" height="6" rx="1" ry="1" width="18" x="6" y="35"/><rect class="cls-1" height="6" rx="1" ry="1" width="18" x="28" y="35"/><rect class="cls-1" height="6" rx="1" ry="1" width="8" x="50" y="35"/><path class="cls-1" d="M5 46h2M9 46h2M23 46h2M27 46h2M31 46h2M45 46h2M5 50h20M5 54h20M5 58h13M27 50h20M27 54h20M27 58h13"/><rect class="cls-1" height="14" rx="1" ry="1" width="8" x="50" y="45"/></g></svg>