<svg viewBox="0 0 32 32" xmlns="http://www.w3.org/2000/svg" fill="#3d6cb9"><g data-name="13-Cloud Network-Process"><path d="M26.64 11.2A11 11 0 0 0 5 13.08 6 6 0 0 0 6 25h8v-2H6a4 4 0 0 1 0-8 1 1 0 0 0 1-1 9 9 0 0 1 17.83-1.75 1 1 0 0 0 .85.8A5 5 0 0 1 30 18h2a7 7 0 0 0-5.36-6.8z"/><path d="M26.43 22l1.27-1.27-1.41-1.41L25 20.57a4 4 0 0 0-1-.42V18h-2v2.14a4 4 0 0 0-1 .42l-1.27-1.27-1.41 1.41 1.25 1.3a4 4 0 0 0-.42 1H17v2h2.14a4 4 0 0 0 .42 1l-1.27 1.27 1.41 1.41 1.3-1.25a4 4 0 0 0 1 .42V30h2v-2.14a4 4 0 0 0 1-.42l1.27 1.27 1.41-1.41-1.25-1.3a4 4 0 0 0 .42-1H29v-2h-2.14a4 4 0 0 0-.43-1zM23 26a2 2 0 1 1 2-2 2 2 0 0 1-2 2z"/></g></svg>