<svg id="Layer_1" style="enable-background:new 0 0 74 74" viewBox="0 0 74 74" xmlns="http://www.w3.org/2000/svg"><style>.st0{fill:#3d6cb9}</style><path class="st0" d="M37.3 28.7c.3-.7.7-1.4.9-2.2.9-.4 1.6-1.2 1.8-2.2.3-1.2.3-2.4.1-3.5-.2-.9-.8-1.7-1.5-2.1-1.3-5.8-5.9-5.8-8.1-5.8-2.3 0-6.9 0-8.1 5.8-.1.1-.2.1-.3.2-.6.5-1 1.2-1.1 1.9-.2 1.1-.2 2.2 0 3.3.2 1.1.9 1.9 1.8 2.3.3.8.6 1.6.9 2.3-5.2 1.6-8.2 5.6-9.1 11.6-.1.9.3 1.7 1.2 2.1 4.9 2.2 9.9 3.3 14.8 3.3s9.9-1.1 14.8-3.3c.8-.4 1.3-1.2 1.2-2.1-1.1-6.1-4.1-10-9.3-11.6zM18.8 39.4c1.1-4.5 3.7-6.8 8.5-7.4.8-.1 1.4-.6 1.6-1.3.2-.7.1-1.5-.5-2.1-.9-.9-1.7-2.4-2.2-4.3-.2-.7-.8-1.3-1.5-1.4v-.8c.7-.2 1.2-.9 1.3-1.6.4-3.2 1.5-3.5 4.4-3.5 2.9 0 4 .3 4.4 3.5.1.8.7 1.4 1.4 1.6v.8c-.7.2-1.3.7-1.5 1.4-.5 2-1.3 3.4-2.2 4.3-.5.5-.7 1.3-.5 2.1s.9 1.2 1.6 1.3c4.8.6 7.5 2.9 8.5 7.4-7.8 3.2-15.5 3.2-23.3 0z"/><path class="st0" d="M72.4 69.6L52.7 49.9c4.5-5.2 7.3-12 7.3-19.4C60 14.2 46.7 1 30.5 1S1 14.2 1 30.5 14.2 60 30.5 60c7.4 0 14.2-2.8 19.4-7.3l19.7 19.7c.4.4.9.6 1.4.6s1-.2 1.4-.6c.8-.8.8-2 0-2.8zM30.5 56C16.4 56 5 44.5 5 30.5 5 16.4 16.4 5 30.5 5S56 16.4 56 30.5C56 44.5 44.5 56 30.5 56z"/></svg>