<svg style="enable-background:new 0 0 59.998 59.998" viewBox="0 0 59.998 59.998" xmlns="http://www.w3.org/2000/svg" fill="#3d6cb9"><path d="M59.457 35.985c-1.753-2.442-3.53-2.481-7.979-.14l-8.623 5.272c-1.278.68-3.901.884-6.445.927.452-.941.25-2.064-.604-3.34a8.296 8.296 0 0 0-3.118-2.759A8.904 8.904 0 0 0 36 28.999c0-4.962-4.037-9-9-9s-9 4.038-9 9a8.95 8.95 0 0 0 1.027 4.156c-.013-.009-.027-.017-.039-.027-3.59-2.707-9.588-3.089-11.987-3.13v-3.027H0v32.028h7v-3h13c2.04 0 4.098-.156 6.116-.462l12.963-1.971a6.77 6.77 0 0 0 1.376-.158c1.194-.168 2.335-.738 3.302-1.65l15.157-11.804.023-.019a2.927 2.927 0 0 0 .52-3.95zM23.17 34.848A6.952 6.952 0 0 1 20 28.999c0-3.86 3.141-7 7-7s7 3.14 7 7a6.946 6.946 0 0 1-3.652 6.139c-.124-.024-.25-.036-.375-.055-.125-.019-.248-.041-.375-.055a8.902 8.902 0 0 0-.98-.058h-3.9a9.934 9.934 0 0 1-1.548-.122zM5 56.999H2V28.971h3v28.028zm52.672-18.612L42.489 50.21l-.077.067c-.67.641-1.443 1.039-2.334 1.168a4.978 4.978 0 0 1-1.078.122L25.815 53.56c-1.919.292-3.876.44-5.815.44H7V32.001c2.217.046 7.706.404 10.784 2.724 1.336 1.008 2.937 1.692 4.645 2.02l.015.009.19.033.029.004c.328.056.66.101.995.13l.032.004c.34.029.682.046 1.027.046h3.9c.55 0 1.1.065 1.634.193l.064.016c1.573.39 2.94 1.315 3.827 2.638.421.627.587 1.148.446 1.393-.267.462-1.506.746-2.763.801A66.873 66.873 0 0 0 30.716 42H21c-3.131 0-5 1.495-5 4a1 1 0 1 0 2 0c0-.495 0-2 3-2h9.694c.227.014.663.033 1.212.013l.532.009c4.693.087 9.094.063 11.408-1.169l8.618-5.27c4.124-2.167 4.539-1.586 5.367-.432a.922.922 0 0 1-.159 1.236z"/><path d="M32 28.999c0-2.757-2.243-5-5-5s-5 2.243-5 5 2.243 5 5 5 5-2.243 5-5zm-5 3c-1.654 0-3-1.346-3-3s1.346-3 3-3 3 1.346 3 3-1.346 3-3 3zM42 18.999c4.963 0 9-4.038 9-9s-4.037-9-9-9-9 4.038-9 9 4.037 9 9 9zm0-16c3.859 0 7 3.14 7 7s-3.141 7-7 7-7-3.14-7-7 3.141-7 7-7z"/><path d="M42 14.999c2.757 0 5-2.243 5-5s-2.243-5-5-5-5 2.243-5 5 2.243 5 5 5zm0-8c1.654 0 3 1.346 3 3s-1.346 3-3 3-3-1.346-3-3 1.346-3 3-3z"/></svg>