<svg viewBox="0 0 512 512" xmlns="http://www.w3.org/2000/svg" fill="#3d6cb9"><path d="M146.94 57.097c-3.808-3.999-10.138-4.157-14.138-.349l-.744.714c-3.976 3.833-4.091 10.164-.258 14.14a9.97 9.97 0 0 0 7.2 3.059c2.498 0 5-.931 6.94-2.802l.65-.624c4-3.808 4.157-10.137.35-14.138zM348.63 452.93a10.076 10.076 0 0 0-7.07-2.93c-2.64 0-5.21 1.069-7.07 2.93-1.86 1.86-2.93 4.44-2.93 7.07s1.07 5.21 2.93 7.069c1.86 1.86 4.44 2.931 7.07 2.931s5.21-1.07 7.07-2.931c1.86-1.859 2.93-4.439 2.93-7.069s-1.07-5.21-2.93-7.07zM341.56 273.98c-18.748 0-34 15.252-34 34 0 15.269 10.118 28.217 24 32.497v79.852c0 5.522 4.477 10 10 10s10-4.478 10-10v-79.852c13.882-4.28 24-17.228 24-32.497 0-18.748-15.252-34-34-34zm0 48c-7.72 0-14-6.28-14-14s6.28-14 14-14 14 6.28 14 14-6.281 14-14 14z"/><path d="M469.51 492h-48.257v-98.447c0-16.347 4.917-32.06 14.22-45.439 28.005-40.279 44.873-96.445 44.021-146.58-.934-54.922-23.08-106.07-62.359-144.03C377.868 19.554 325.989-.847 271.055.03c-39.739.642-78.121 12.674-111 34.799-4.582 3.083-5.797 9.297-2.713 13.879 3.084 4.581 9.297 5.799 13.879 2.713a184.102 184.102 0 0 1 50.968-23.94v152.52l-15.074 15.062a33.788 33.788 0 0 0-15.894-3.956c-18.748 0-34 15.252-34 34s15.252 34 34 34 34-15.252 34-34a33.79 33.79 0 0 0-3.961-15.904l17.998-17.983a10.003 10.003 0 0 0 2.932-7.074V22.816a185.838 185.838 0 0 1 29.186-2.781c5.313-.086 10.575.066 15.783.423v91.263c-13.882 4.281-24 17.228-24 32.497 0 18.748 15.252 34 34 34s34-15.252 34-34c0-15.269-10.118-28.217-24-32.497V22.927a183.659 183.659 0 0 1 41.96 12.859v148.36c0 2.653 1.055 5.198 2.932 7.074l17.998 17.983a33.79 33.79 0 0 0-3.961 15.904c0 18.748 15.252 34 34 34s34-15.252 34-34-15.252-34-34-34a33.788 33.788 0 0 0-15.894 3.956l-15.074-15.062V46.141c53.157 31.778 89.253 89.452 90.38 155.74.772 45.453-15.104 98.373-40.445 134.82-11.644 16.747-17.799 36.408-17.799 56.856v98.449H307.16v-86c0-2.653-1.055-5.198-2.932-7.074l-17.998-17.983a33.79 33.79 0 0 0 3.961-15.904c0-18.748-15.252-34-34-34s-34 15.252-34 34 15.252 34 34 34a33.788 33.788 0 0 0 15.894-3.956l15.074 15.062v81.855h-35.107v-14.952c0-21.504-17.495-38.998-38.999-38.998H150.13c-21.647 0-39.258-17.611-39.258-39.259v-72.172c0-5.522-4.477-10-10-10H55.964l32.933-108.62a10 10 0 0 0 .43-2.901c0-34.793 9.704-68.692 28.062-98.034a187.08 187.08 0 0 1 4.514-6.871c3.134-4.548 1.987-10.774-2.561-13.908-4.547-3.134-10.774-1.988-13.908 2.561a207.53 207.53 0 0 0-5 7.61c-20.086 32.104-30.826 69.121-31.102 107.14l-36.42 120.12a10 10 0 0 0 9.57 12.901H90.87v62.172c0 32.676 26.583 59.259 59.258 59.259h62.923c10.476 0 18.999 8.522 18.999 18.998v14.951H42.48c-5.523 0-10 4.478-10 10s4.477 10 10 10h427.03c5.523 0 10-4.478 10-10s-4.477-10-10-10zM191.22 239.1c-7.72 0-14-6.28-14-14s6.28-14 14-14 14 6.28 14 14-6.28 14-14 14zm119.94-94.893c0 7.72-6.28 14-14 14s-14-6.28-14-14 6.28-14 14-14 14 6.28 14 14zm88.929 66.893c7.72 0 14 6.281 14 14 0 7.72-6.28 14-14 14s-14-6.28-14-14 6.28-14 14-14zm-143.9 167.94c-7.72 0-14-6.28-14-14s6.28-14 14-14 14 6.28 14 14-6.28 14-14 14z"/></svg>