<svg height="128" viewBox="0 0 128 128" width="128" xmlns="http://www.w3.org/2000/svg"><path d="M90.2 29.6c-2.6 0-5 .3-7.4.9-1.8-11.9-11.9-21-24.3-21-13.6 0-24.6 11-24.6 24.6 0 1.8.2 3.6.6 5.4h-.4c-13.5 0-24.4 10.7-24.4 24.2C9.6 77.3 20.5 88 34 88h56.1c16.2 0 29.4-13 29.4-29.2s-13.1-29.2-29.3-29.2zm0 54.4H34c-11.3 0-20.4-9-20.4-20.2 0-11.3 9.4-20.3 20.4-20.3v.1h.4l5.1.1-1.1-5c-.3-1.5-.5-3-.5-4.5 0-11.4 9.2-20.6 20.6-20.6 10.1 0 18.9 7.5 20.3 17.6l.1.9c-5 2.3-9.3 5.9-12.4 10.4l3.3 2.3c4.6-6.5 11.8-11.1 20.3-11.1 14 0 25.4 11.2 25.4 25.2 0 13.9-11.3 25.1-25.3 25.1z" fill="#3d6cb9"/><g fill="#3d6cb9"><path d="M70.4 119H59.1c-.6 0-1-.4-1-1s.4-1 1-1h11.3c.6 0 1 .4 1 1s-.5 1-1 1zM79 99c0-2.2-1.8-4-4-4H54c-2.2 0-4 1.8-4 4v12c0 2.2 1.8 4 4 4h21c2.2 0 4-1.8 4-4V99zm-2 12c0 1.1-.9 2-2 2H54c-1.1 0-2-.9-2-2V99c0-1.1.9-2 2-2h21c1.1 0 2 .9 2 2v12z"/></g><g fill="#3d6cb9"><path d="M106 111.8V101H92V111.9c0 .9 1 1.2 1.9 1.2H95v3.9c0 .8.7 1.5 1.5 1.5s1.5-.7 1.5-1.5v-3.1c0-.1-.1-.8-.2-.8h2.7s.4.7.4.8v3.1c0 .8.2 1.5 1 1.5s1-.7 1-1.5v-3.1c0-.1.4-.8.4-.8h1.1c1-.1 1.6-.4 1.6-1.3zM107 102.5v6.3c0 .8.7 1.5 1.5 1.5s1.5-.7 1.5-1.5v-6.3c0-.8-.7-1.5-1.5-1.5-.8.1-1.5.7-1.5 1.5zM89.5 110.3c.8 0 1.5-.7 1.5-1.5v-6.3c0-.8-.7-1.5-1.5-1.5s-1.5.7-1.5 1.5v6.3c0 .8.7 1.5 1.5 1.5zM103.2 93.5l.6-.9c.1-.1 0-.3-.1-.3-.1-.1-.3 0-.3.1l-.6 1-.3.4-.3.4c-.9-.3-1.8-.5-2.8-.5-1 0-2 .2-2.8.5l-.3-.4-.3-.5-.6-1c-.1-.1-.2-.1-.3-.1-.1.1-.1.2-.1.3l.6.9.3.4.3.3c-2 1-3.4 2.8-3.4 4.8H106c0-2-1.4-3.8-3.4-4.8l.3-.4.3-.2zm-6.7 3.7c-.4 0-.7-.3-.7-.7 0-.4.3-.7.7-.7s.7.3.7.7c0 .4-.3.7-.7.7zm6.4-.7c0 .4-.3.7-.7.7s-.7-.3-.7-.7c0-.4.3-.7.7-.7s.7.3.7.7z"/></g><g fill="#3d6cb9"><path d="M36.2 106.1c0-3.3 2.7-4.9 2.8-5-1.5-2.3-4-2.6-4.8-2.6-2-.2-4 1.2-5 1.2s-2.6-1.2-4.3-1.1c-2.2 0-4.3 1.3-5.4 3.3-2.3 4-.6 10 1.7 13.2 1.1 1.6 2.4 3.4 4.1 3.3 1.7-.1 2.3-1.1 4.3-1.1s2.6 1.1 4.3 1c1.8 0 2.9-1.6 4-3.2 1.3-1.9 1.8-3.6 1.8-3.7 0 0-3.5-1.3-3.5-5.3zM32.9 96.3c.9-1.1 1.5-2.7 1.4-4.2-1.3.1-2.9.9-3.9 2-.9 1-1.6 2.6-1.4 4.1 1.4.1 2.9-.8 3.9-1.9z"/></g></svg>