<svg style="enable-background:new 0 0 512 512" viewBox="0 0 512 512" xmlns="http://www.w3.org/2000/svg" fill="#3d6cb9"><path d="M366.933 170.667h-17.067c-4.71 0-8.533 3.823-8.533 8.533s3.823 8.533 8.533 8.533h17.067c4.71 0 8.533-3.823 8.533-8.533s-3.822-8.533-8.533-8.533zM366.933 204.8h-17.067a8.536 8.536 0 0 0-8.533 8.533 8.536 8.536 0 0 0 8.533 8.533h17.067a8.536 8.536 0 0 0 8.533-8.533c.001-4.71-3.822-8.533-8.533-8.533zM366.933 136.533h-17.067a8.536 8.536 0 0 0-8.533 8.533 8.536 8.536 0 0 0 8.533 8.533h17.067a8.536 8.536 0 0 0 8.533-8.533c.001-4.71-3.822-8.533-8.533-8.533zM366.933 409.6h-17.067c-4.71 0-8.533 3.823-8.533 8.533s3.823 8.533 8.533 8.533h17.067c4.71 0 8.533-3.823 8.533-8.533s-3.822-8.533-8.533-8.533zM179.2 136.533H128a8.536 8.536 0 0 0-8.533 8.533v119.467a8.536 8.536 0 0 0 8.533 8.533h51.2a8.536 8.536 0 0 0 8.533-8.533V145.067c0-4.711-3.823-8.534-8.533-8.534zM170.667 256h-34.133V153.6h34.133V256zM179.2 409.6H128c-4.71 0-8.533 3.823-8.533 8.533s3.823 8.533 8.533 8.533h51.2c4.71 0 8.533-3.823 8.533-8.533s-3.823-8.533-8.533-8.533zM179.2 443.733H128a8.536 8.536 0 0 0-8.533 8.533 8.536 8.536 0 0 0 8.533 8.533h51.2a8.536 8.536 0 0 0 8.533-8.533 8.536 8.536 0 0 0-8.533-8.533zM366.933 443.733h-17.067a8.536 8.536 0 0 0-8.533 8.533 8.536 8.536 0 0 0 8.533 8.533h17.067a8.536 8.536 0 0 0 8.533-8.533c.001-4.71-3.822-8.533-8.533-8.533zM469.333 443.733H435.2a8.536 8.536 0 0 0-8.533 8.533 8.536 8.536 0 0 0 8.533 8.533h34.133a8.536 8.536 0 0 0 8.533-8.533c.001-4.71-3.822-8.533-8.533-8.533zM290.133 145.067a8.536 8.536 0 0 0-8.533-8.533h-34.133a8.536 8.536 0 0 0-8.533 8.533v119.467a8.536 8.536 0 0 0 8.533 8.533H281.6a8.536 8.536 0 0 0 8.533-8.533V145.067zM273.067 256H256V153.6h17.067V256zM469.333 409.6H435.2c-4.71 0-8.533 3.823-8.533 8.533s3.823 8.533 8.533 8.533h34.133c4.71 0 8.533-3.823 8.533-8.533s-3.822-8.533-8.533-8.533zM281.6 443.733h-34.133a8.536 8.536 0 0 0-8.533 8.533 8.536 8.536 0 0 0 8.533 8.533H281.6a8.536 8.536 0 0 0 8.533-8.533 8.536 8.536 0 0 0-8.533-8.533zM435.2 307.2a8.536 8.536 0 0 0 8.533-8.533v-85.333c0-4.71-3.823-8.533-8.533-8.533s-8.533 3.823-8.533 8.533v85.333a8.536 8.536 0 0 0 8.533 8.533zM477.867 213.333c0-4.71-3.823-8.533-8.533-8.533s-8.533 3.823-8.533 8.533v85.333c0 4.71 3.823 8.533 8.533 8.533s8.533-3.823 8.533-8.533v-85.333z"/><path d="M486.4 68.267h-51.2c-4.71 0-8.533 3.823-8.533 8.533s3.823 8.533 8.533 8.533h51.2c4.702 0 8.533 3.831 8.533 8.533V486.4c0 4.702-3.831 8.533-8.533 8.533h-76.8v-358.4h51.2c4.71 0 8.533-3.823 8.533-8.533s-3.823-8.533-8.533-8.533h-51.2v-76.8c0-14.353-11.247-25.6-25.6-25.6h-51.2c-14.114 0-25.6 11.486-25.6 25.6v452.267h-85.333V51.2H281.6a8.536 8.536 0 0 0 8.533-8.533 8.536 8.536 0 0 0-8.533-8.533h-59.733V25.6c0-14.353-11.247-25.6-25.6-25.6h-85.333c-14.114 0-25.6 11.486-25.6 25.6v76.8H42.667c-4.71 0-8.533 3.823-8.533 8.533s3.823 8.533 8.533 8.533h42.667v375.467H25.6c-4.702 0-8.533-3.831-8.533-8.533V76.8c0-4.702 3.831-8.533 8.533-8.533h34.133c4.71 0 8.533-3.823 8.533-8.533S64.444 51.2 59.733 51.2H25.6C11.486 51.2 0 62.686 0 76.8v409.6C0 500.514 11.486 512 25.6 512h460.8c14.114 0 25.6-11.486 25.6-25.6V93.867c0-14.114-11.486-25.6-25.6-25.6zM204.8 494.933H102.4V68.267h76.8c4.71 0 8.533-3.823 8.533-8.533S183.91 51.2 179.2 51.2h-76.8V25.6c0-4.787 3.746-8.533 8.533-8.533h85.333c4.864 0 8.533 3.669 8.533 8.533v469.333zm187.733 0h-68.267v-409.6h42.667c4.71 0 8.533-3.823 8.533-8.533s-3.823-8.533-8.533-8.533h-42.667v-25.6c0-4.787 3.746-8.533 8.533-8.533H384c4.864 0 8.533 3.669 8.533 8.533v452.266z"/><path d="M59.733 409.6H42.667c-4.71 0-8.533 3.823-8.533 8.533s3.823 8.533 8.533 8.533h17.067c4.71 0 8.533-3.823 8.533-8.533s-3.823-8.533-8.534-8.533zM59.733 443.733H42.667a8.536 8.536 0 0 0-8.533 8.533 8.536 8.536 0 0 0 8.533 8.533h17.067a8.536 8.536 0 0 0 8.533-8.533c0-4.71-3.823-8.533-8.534-8.533zM281.6 409.6h-34.133c-4.71 0-8.533 3.823-8.533 8.533s3.823 8.533 8.533 8.533H281.6c4.71 0 8.533-3.823 8.533-8.533s-3.823-8.533-8.533-8.533zM59.733 204.8H42.667a8.536 8.536 0 0 0-8.533 8.533 8.536 8.536 0 0 0 8.533 8.533h17.067a8.536 8.536 0 0 0 8.533-8.533c0-4.71-3.823-8.533-8.534-8.533zM59.733 238.933H42.667c-4.71 0-8.533 3.823-8.533 8.533S37.956 256 42.667 256h17.067c4.71 0 8.533-3.823 8.533-8.533s-3.823-8.534-8.534-8.534z"/></svg>