<svg viewBox="0 0 1073 380" xmlns="http://www.w3.org/2000/svg"><g fill="none" fill-rule="evenodd"><path fill="#FEFEFE" d="M233.87 326.6h8.95v-1.9h-8.95z"/><path fill="#FEFEFE" d="M237.39 330.13h1.91v-8.96h-1.91zM248.81 351.23h8.95v-1.9h-8.95z"/><path fill="#FEFEFE" d="M252.34 354.76h1.9v-8.95h-1.9zM211.02 339.87h7.84v-1.67h-7.84z"/><path fill="#FEFEFE" d="M214.11 342.95h1.67v-7.84h-1.67zM279.11 327.88h6.71v-1.43h-6.71z"/><path fill="#FEFEFE" d="M281.75 330.52h1.43v-6.72h-1.43zM355.22 303.5l6.12-6.125-6.12-6.12-6.122 6.12 6.122 6.125zm9.928-6.125l-9.928 9.926-9.93-9.926 9.93-9.923 9.928 9.923zM371.53 322.43l4.375-4.378-4.375-4.379-4.386 4.38 4.386 4.377zm7.091-4.378l-7.091 7.094-7.097-7.094 7.097-7.098 7.091 7.098zM350.1 338.4l4.014-4.014-4.014-4.014-4.017 4.013 4.017 4.015zm6.51-4.014l-6.51 6.506-6.51-6.507 6.51-6.507 6.51 6.507zM163.36 315.38h121.88v-1.44H163.36zM314.26 340.01a25.513 25.513 0 0 1-8.134-2.5l1.032-1.61a23.51 23.51 0 0 0 7.102 2.186v1.924zM299.98 333.19a25.684 25.684 0 0 1-5.71-8.1h2.102a23.37 23.37 0 0 0 4.663 6.465l-1.055 1.635zM295.99 301.07a25.794 25.794 0 0 1 6.115-6.718l.92 1.702a23.953 23.953 0 0 0-5.37 5.934l-1.665-.918zM318.74 338.29l.074-.001c.407-.016.808-.031 1.217-.07 12.986-1.327 22.473-12.974 21.151-25.963-1.242-12.128-11.352-21.274-23.522-21.274-.825 0-1.646.041-2.442.121a24.192 24.192 0 0 0-3.99.764l-.92-1.706a24.985 24.985 0 0 1 4.719-.945 25.22 25.22 0 0 1 2.633-.14c13.15 0 24.076 9.884 25.415 22.989 1.432 14.026-8.818 26.61-22.848 28.05-.495.046-.981.067-1.487.083v-1.907zM292.25 317.76a6.381 6.381 0 0 1-.072-.5 25.237 25.237 0 0 1 .61-8.617l1.73.948a23.394 23.394 0 0 0-.45 7.476c.023.236.06.464.099.693h-1.917z"/><path d="M317.62 305.99c-2.475 0-4.8.963-6.545 2.71a9.253 9.253 0 0 0-2.717 6.595c.006 5.104 4.189 9.256 9.325 9.258 2.439-.006 4.741-.974 6.49-2.73a9.324 9.324 0 0 0 2.744-6.637c-.013-5.07-4.183-9.196-9.297-9.196m1.398 21.537c-.145 0-.323 0-.503-.415-.348-.805-.923-1.265-1.58-1.265-.595 0-1.156.393-1.533 1.081-.205.36-.37.36-.462.36-.13 0-.291-.044-.461-.09a6.26 6.26 0 0 0-.356-.086c-.614-.118-.697-.282-.638-.711.053-.38.162-1.168-.748-1.643-.375-.192-.69-.28-.991-.28-.373 0-.716.13-1.084.411a1.32 1.32 0 0 1-.471.22c-.522-.328-.91-.67-1.15-1.015.013-.106.112-.336.174-.48.055-.127.108-.252.147-.365a1.6 1.6 0 0 0-.196-1.477 1.686 1.686 0 0 0-1.383-.722c-.043 0-.211.01-.211.01-.14.01-.296.022-.448.022-.307 0-.381-.051-.381-.051-.32-.358-.56-.888-.6-1.344.024-.043.233-.238.357-.353.12-.114.24-.226.337-.335.376-.377.498-.907.374-1.459-.122-.545-.454-.97-.89-1.137-1.028-.4-1.028-.4-1.024-1.534v-.418c.117-.05.24-.094.366-.138.602-.216 1.352-.486 1.642-1.58.31-1.169-.273-1.777-.739-2.267-.075-.08-.151-.16-.224-.24l.055-.102c.12-.22.234-.428.318-.659.216-.585.428-.666.621-.666.12 0 .262.032.428.097.141.053.307.08.48.08.165 0 .574-.027.842-.27l.062-.057c.751-.676 1.782-1.601.936-3.076a.345.345 0 0 1-.023-.076l.102-.068c.244-.16.498-.329.726-.532.191-.17.355-.256.492-.256.135 0 .287.093.448.275.308.356.674.533 1.112.533.293 0 .593-.081.845-.161.748-.233 1.609-.665 1.624-1.946 0-.062.027-.145.06-.24.076-.009.155-.021.236-.048.3-.087.564-.132.788-.132.41 0 .862.125 1.115 1.044.14.53.915.72 1.596.72.34 0 .956-.052 1.252-.394.531-.611.688-.767.86-.767.16 0 .426.091.828.229l.112.038c.356.122.424.231.393.652l-.004.078c-.024.415-.052.931.206 1.293a2.05 2.05 0 0 0 1.715.868c.343 0 .702-.073 1.065-.216.134-.053.312-.088.449-.088.102 0 .14.018.14.018 1.006.743 1.018.798.466 1.94-.218.444-.167 1.003.134 1.497.298.484.763.78 1.247.786 1.02.03 1.02.03 1.353 1.04l.168.487-.579.446c-.604.445-.904 1.084-.799 1.708.098.59.541 1.048 1.213 1.255.617.187.579.396.478.95-.045.235-.09.48-.066.734.023.225.023.229-.37.285a2.45 2.45 0 0 0-.299.055c-.77.176-1.297.58-1.476 1.133-.182.556.003 1.197.526 1.807.12.147.245.31.366.467-.033.048-.062.095-.093.142-.163.244-.314.474-.422.748-.153.39-.317.423-.485.423-.11 0-.248-.023-.42-.07a2.521 2.521 0 0 0-.656-.093c-.554 0-1.018.217-1.307.61-.32.436-.384 1.033-.18 1.683.186.583.151.72-.228.915a4.91 4.91 0 0 0-.415.254c-.224.147-.434.287-.597.287-.12 0-.26-.098-.412-.291-.283-.358-.634-.537-1.04-.537-.32 0-.639.112-.946.22-.95.33-.911 1.193-.897 1.518.011.45-.132.578-.724.64-.113.01-.231.028-.349.048-.134.02-.268.043-.394.043" fill="#FEFEFE"/><path d="M317.63 309.83c-3.053 0-5.443 2.382-5.443 5.425 0 3.008 2.437 5.456 5.429 5.458 3.018-.006 5.464-2.449 5.464-5.448 0-3.044-2.39-5.432-5.44-5.435h-.01zm-.29 12.094c-1.667-.022-3.318-.767-4.53-2.043a6.69 6.69 0 0 1-1.856-4.9c.126-3.518 3.114-6.38 6.658-6.38 1.893.016 3.58.716 4.808 1.968 1.235 1.26 1.906 2.971 1.886 4.82-.04 3.726-2.983 6.536-6.848 6.536l-.118-.001zM119.91 349.31l6.94-4.37 6.96 4.37-6.96 4.4z" fill="#FEFEFE"/><path fill="#FEFEFE" d="M106.08 349.31l6.94-4.37 6.95 4.37-6.95 4.4z"/><path fill="#FEFEFE" d="M92.243 349.31l6.952-4.37 6.955 4.37-6.955 4.4z"/><path d="M1070.4 378.17c-29.123-84.748-93.892-152.92-176.4-186.6M842.41 175.62a310.455 310.455 0 0 0-49.641-6.54M774 168.69c-2.86.025-5.711.09-8.552.192M684.82 182.54c-67.282 20.857-124.77 63.986-163.85 120.77M510.64 319.35a309.315 309.315 0 0 0-14.894 27.901M490.02 360.2a308.235 308.235 0 0 0-6.954 18.394" stroke="#FEFEFE" stroke-linecap="round" stroke-width="2"/><path d="M684.98 169.85c-.862.536-.864 1.406 0 1.945l34.353 21.423c.864.537 2.262.538 3.126 0l34.353-21.423c.862-.539.863-1.408 0-1.945l-34.354-21.342c-.863-.537-2.261-.537-3.125 0L684.98 169.85z" stroke="#FEFEFE" stroke-width="2"/><path d="M684.98 155.59c-.862.536-.864 1.406 0 1.945l34.353 21.423c.864.537 2.262.538 3.126 0l34.353-21.423c.862-.539.863-1.408 0-1.945l-34.354-21.342c-.863-.537-2.261-.537-3.125 0L684.98 155.59zM648.12 265.58c-.862.536-.864 1.406 0 1.945l34.353 21.423c.862.537 2.262.538 3.126 0l34.352-21.423c.863-.539.864-1.408 0-1.945l-34.353-21.342c-.863-.537-2.261-.537-3.125 0L648.12 265.58zM721.84 265.58c-.862.536-.864 1.406 0 1.945l34.353 21.423c.864.537 2.262.538 3.126 0l34.353-21.423c.862-.539.863-1.408 0-1.945l-34.354-21.342c-.863-.537-2.261-.537-3.125 0L721.84 265.58zM721.84 219.77c-.862.536-.864 1.406 0 1.945l34.353 21.423c.864.537 2.262.538 3.126 0l34.353-21.423c.862-.539.863-1.408 0-1.945l-34.354-21.342c-.863-.537-2.261-.537-3.125 0L721.84 219.77zM648.12 219.77c-.862.536-.864 1.406 0 1.945l34.353 21.423c.862.537 2.262.538 3.126 0l34.352-21.423c.863-.539.864-1.408 0-1.945l-34.353-21.342c-.863-.537-2.261-.537-3.125 0L648.12 219.77z" stroke="#FEFEFE" stroke-width="2"/><path d="M684.98 139.86c-.862.536-.864 1.406 0 1.945l34.353 21.423c.864.537 2.262.538 3.126 0l34.353-21.423c.862-.539.863-1.408 0-1.945l-34.354-21.342c-.863-.537-2.261-.537-3.125 0L684.98 139.86zM720.9 220.7l37.47 23.33-37.47 23.32-37.48-23.32z" stroke="#FEFEFE" stroke-width="2"/><path d="M782.257 154.446h84.584" fill="#D7D7D7"/><path d="M782.257 154.446h84.584M850.75 162.73c-1.823.911-1.82 2.395 0 3.308l15.776 7.92 15.776-7.92c1.824-.916 1.821-2.398 0-3.308l-15.776-7.889-15.776 7.889zM850.75 201.53c-1.823.911-1.82 2.395 0 3.308l15.776 7.92 15.776-7.92c1.824-.916 1.821-2.398 0-3.308l-15.776-7.889-15.776 7.889zM850.75 182.13c-1.823.911-1.82 2.395 0 3.308l15.776 7.92 15.776-7.92c1.824-.916 1.821-2.398 0-3.308l-15.776-7.889-15.776 7.889zM850.75 220.94c-1.823.911-1.82 2.395 0 3.308l15.776 7.92 15.776-7.92c1.824-.916 1.821-2.398 0-3.308l-15.776-7.889-15.776 7.889z" stroke="#FEFEFE" stroke-width="2"/><path d="M866.05 151.77a3.286 3.286 0 1 1 0 6.572 3.286 3.286 0 1 1 0-6.572zM866.05 170.55a3.286 3.286 0 1 1 0 6.572 3.286 3.286 0 1 1 0-6.572zM866.05 190.27a3.286 3.286 0 1 1 0 6.572 3.286 3.286 0 1 1 0-6.572zM866.05 215.62a3.286 3.286 0 1 0 0-6.572 3.286 3.286 0 1 0 0 6.572zM910.3 254.57v11.64h-87.69v-11.64" stroke="#FEFEFE" stroke-width="2"/><path d="M910.3 254.63c0-12.035-11.835-21.79-43.844-21.79-32.008 0-43.843 9.755-43.843 21.79H910.3zM840.16 260.78c3.263 0 5.909 2.607 5.909 5.82 0 3.216-2.646 5.821-5.909 5.821s-5.907-2.605-5.907-5.82c0-3.214 2.644-5.821 5.907-5.821zM893.53 272.42c3.263 0 5.907-2.607 5.907-5.82 0-3.216-2.644-5.821-5.907-5.821s-5.909 2.605-5.909 5.82c0 3.214 2.646 5.821 5.909 5.821z" stroke="#FEFEFE" stroke-width="2"/><path d="M720.96 133.49h53.925c4.075 0 7.378 3.31 7.378 7.39v35.668c0 4.082-3.306 7.39-7.374 7.39h-21.337M720.96 139.7v-6.209" stroke="#FEFEFE" stroke-linecap="round" stroke-width="2"/><path stroke="#FEFEFE" stroke-width="2" d="M911.08 260.22h13.19v-22.73M821.06 260.22h-13.19v-22.73M804.76 227.4a5.82 5.82 0 1 0 5.648.116M918.74 232.62a5.821 5.821 0 1 0 2.755-4.932"/><path d="M600.75 275.66c5.571-.969 12.056-4.172 17.929-9.277 11.024-9.583 15.713-22.239 10.473-28.269-5.24-6.028-18.426-3.147-29.452 6.438a47.687 47.687 0 0 0-4.267 4.202m-7.705 13.237c-1.18 4.333-.78 8.209 1.499 10.829M598.56 300.9c1.464-4.536 1.593-7.864.035-8.837-2.46-1.537-8.36 3.286-14.24 11.25a84.975 84.975 0 0 0-3.707 5.457M523.98 344.72c-2.893 6.537-2.995 12.547.112 14.488 3.803 2.377 10.975-2.24 16.02-10.31s6.048-16.542 2.244-18.919c-2.738-1.71-7.224.203-11.403 4.424M623.34 316.55c1.238.932 3.055.885 5.079.046m-29.205 32.474c2.357-4.631 2.661-8.975.439-10.65-2.847-2.145-8.757.897-13.2 6.796" stroke="#FEFEFE" stroke-linecap="round" stroke-width="2"/><path d="M564.83 289.05c-1.498-1.55-5.319-.292-8.534 2.813-3.214 3.104-4.606 6.878-3.109 8.43 1.5 1.55 5.319.292 8.534-2.813 3.216-3.104 4.607-6.88 3.109-8.43z" stroke="#FEFEFE" stroke-width="2"/><path d="M521.91 317.13a1.376 1.376 0 0 1 1.531-1.2c.755.092 1.289.78 1.196 1.535a1.375 1.375 0 0 1-1.53 1.199 1.375 1.375 0 0 1-1.197-1.534" fill="#060101"/><path d="M521.91 317.13a1.376 1.376 0 0 1 1.531-1.2c.755.092 1.289.78 1.196 1.535a1.375 1.375 0 0 1-1.53 1.199 1.375 1.375 0 0 1-1.197-1.534z" stroke="#FEFEFE" stroke-width="2"/><path d="M605.04 321.92a1.376 1.376 0 0 1 1.531-1.2c.755.092 1.289.78 1.196 1.535-.092.754-.778 1.291-1.53 1.199s-1.29-.78-1.197-1.534" fill="#060101"/><path d="M605.04 321.92a1.376 1.376 0 0 1 1.531-1.2c.755.092 1.289.78 1.196 1.535-.092.754-.778 1.291-1.53 1.199s-1.29-.78-1.197-1.534z" stroke="#FEFEFE" stroke-width="2"/><path d="M619.19 279.95c.093-.754.778-1.293 1.531-1.2a1.377 1.377 0 0 1-.335 2.734 1.375 1.375 0 0 1-1.196-1.534" fill="#060101"/><path d="M619.19 279.95c.093-.754.778-1.293 1.531-1.2a1.377 1.377 0 0 1-.335 2.734 1.375 1.375 0 0 1-1.196-1.534z" stroke="#FEFEFE" stroke-width="2"/><path d="M569.28 273.18a1.375 1.375 0 1 0-2.727-.335 1.375 1.375 0 0 0 1.196 1.535 1.376 1.376 0 0 0 1.531-1.2" fill="#060101"/><path d="M569.28 273.18a1.375 1.375 0 1 0-2.727-.335 1.375 1.375 0 0 0 1.196 1.535 1.376 1.376 0 0 0 1.531-1.2z" stroke="#FEFEFE" stroke-width="2"/><path d="M549.29 152.23c.934 4.984 4.49 9.315 9.651 10.992a14.279 14.279 0 0 0 12.118-1.544 14.26 14.26 0 0 0 5.922-7.65 14.298 14.298 0 0 0-1.784-12.488m-18.766-4.46a14.276 14.276 0 0 0-6.23 6.897m17.59-7.991a14.364 14.364 0 0 0-3.817-.692M849.58 76.695a10.616 10.616 0 0 0-8.028 7.3 10.599 10.599 0 0 0 1.302 8.968 10.58 10.58 0 0 0 5.751 4.293c3.27 1 6.648.345 9.24-1.484m3.065-13.977a10.59 10.59 0 0 0-5.197-4.53m6.155 12.942c.288-.945.438-1.899.462-2.841M501.47 256.73a5.614 5.614 0 0 0-3.336-1.667m3.4 9.444a5.62 5.62 0 0 0 1.432-2.829m-9.66-4.87a5.61 5.61 0 0 0-1.517 3.844c0 1.613.677 3.067 1.764 4.093a5.618 5.618 0 0 0 3.479 1.527" stroke="#FEFEFE" stroke-linecap="round" stroke-width="2"/><path d="M914.74 159.13a2.816 2.816 0 1 0 0-5.634 2.817 2.817 0 0 0 0 5.634" fill="#060101"/><path d="M914.74 159.13a2.816 2.816 0 1 0 0-5.634 2.817 2.817 0 0 0 0 5.634z" stroke="#FEFEFE" stroke-width="2"/><path d="M678.68 75.72a2.816 2.816 0 1 1 0 5.634 2.817 2.817 0 0 1 0-5.634" fill="#060101"/><path d="M678.68 75.72a2.816 2.816 0 1 1 0 5.634 2.817 2.817 0 0 1 0-5.634z" stroke="#FEFEFE" stroke-width="2"/><path d="M583.83 192.15a2.816 2.816 0 1 1 0 5.634 2.817 2.817 0 0 1 0-5.634" fill="#060101"/><path d="M583.83 192.15a2.816 2.816 0 1 1 0 5.634 2.817 2.817 0 0 1 0-5.634z" stroke="#FEFEFE" stroke-width="2"/><g fill="#FEFEFE"><path d="M25.448 349.774c-1.557 0-2.824 1.462-2.824 3.259 0 1.79 1.267 3.247 2.824 3.247 1.56 0 2.832-1.457 2.832-3.247 0-1.797-1.271-3.259-2.832-3.259m0 8.248c-2.392 0-4.337-2.238-4.337-4.99 0-2.755 1.945-4.998 4.337-4.998 2.39 0 4.336 2.243 4.336 4.998 0 2.752-1.946 4.99-4.336 4.99M36.895 337.658c-1.558 0-2.826 1.458-2.826 3.252 0 1.795 1.268 3.256 2.826 3.256 1.556 0 2.824-1.46 2.824-3.256 0-1.794-1.268-3.252-2.824-3.252m0 8.244c-2.392 0-4.339-2.24-4.339-4.992 0-2.755 1.947-4.996 4.339-4.996 2.39 0 4.333 2.241 4.333 4.995s-1.944 4.993-4.333 4.993M48.008 349.774c-1.559 0-2.826 1.462-2.826 3.259 0 1.79 1.267 3.247 2.826 3.247 1.557 0 2.824-1.457 2.824-3.247 0-1.797-1.267-3.259-2.824-3.259m0 8.248c-2.393 0-4.341-2.238-4.341-4.99 0-2.755 1.948-4.998 4.341-4.998 2.39 0 4.334 2.243 4.334 4.998 0 2.752-1.945 4.99-4.334 4.99M59 337.658c-1.558 0-2.828 1.458-2.828 3.252 0 1.795 1.27 3.256 2.828 3.256 1.556 0 2.823-1.46 2.823-3.256 0-1.794-1.267-3.252-2.823-3.252m0 8.244c-2.394 0-4.343-2.24-4.343-4.992 0-2.755 1.949-4.996 4.343-4.996 2.39 0 4.333 2.241 4.333 4.995s-1.944 4.993-4.333 4.993"/><path d="M49.676 349.786l6.117-7.037 1.426 1.64-6.119 7.042zM38.781 344.367l1.434-1.645 6.113 7.04-1.431 1.642zM27.654 349.762l6.112-7.04 1.429 1.645-6.117 7.037z"/></g></g></svg>