<svg xmlns="http://www.w3.org/2000/svg" viewBox="0 0 126.188 126.188">
  <defs>
    <style>
      .cls-1 {
        fill: #fff;
      }
    </style>
  </defs>
  <g id="Group_542" data-name="Group 542" transform="translate(-1040 -116)">
    <g id="Group_365" data-name="Group 365" transform="translate(1040 116)">
      <path id="Path_371" data-name="Path 371" class="cls-1" d="M126.187,59.643v6.9c-.271,2.194-.468,4.387-.813,6.556a63.184,63.184,0,0,1-53.087,52.373c-1.9.3-3.82.493-5.718.715h-6.9a8.465,8.465,0,0,0-1.084-.222,53.086,53.086,0,0,1-13.876-2.588C20.7,115.22,6.014,98.756.986,73.839.518,71.523.32,69.132,0,66.791V59.4a8.108,8.108,0,0,0,.222-1.06A60.121,60.121,0,0,1,9.094,30.61Q24.658,5.508,53.95.715C55.749.419,57.6.222,59.4,0h7.394c2.095.271,4.214.468,6.309.813a63.211,63.211,0,0,1,52.373,53.235C125.744,55.9,125.941,57.77,126.187,59.643ZM53.038,87.395c-2.662-.567-5.25-.986-7.763-1.676-6.408-1.75-11.584-5.176-14.59-11.337A30.875,30.875,0,0,1,27.924,62.6c-.394-6.161.912-11.83,5-16.661a1.624,1.624,0,0,0,.271-1.306,19.99,19.99,0,0,1,.1-11.288c.789-2.859,1.035-2.982,4.017-2.391,4.017.813,7.517,2.785,10.967,4.88a2.556,2.556,0,0,0,1.775.345,50.413,50.413,0,0,1,26.174,0A2.834,2.834,0,0,0,78,35.86c2.563-1.282,5.028-2.81,7.665-3.894a22.692,22.692,0,0,1,5.5-1.134,1.456,1.456,0,0,1,1.158.739,20.149,20.149,0,0,1,.764,12.791,1.792,1.792,0,0,0,.37,1.873,19.992,19.992,0,0,1,4.165,8.133,30.9,30.9,0,0,1,.049,13.186,21.753,21.753,0,0,1-6.58,12.791,25.63,25.63,0,0,1-12.15,5.89c-1.9.419-3.82.715-5.866,1.109,2.859,2.982,3.549,6.556,3.549,10.327V112.46c0,1.577.542,2.637,1.775,2.884a5.614,5.614,0,0,0,2.859-.148,55.235,55.235,0,1,0-73.051-46.7c1.873,17.868,10.6,31.793,25.755,41.455a77.487,77.487,0,0,0,11.165,5.348c2.465,1.06,4.387-.394,4.412-3.007v-8.922c-1.676.173-3.179.419-4.683.493-6.605.394-12.274-2.563-14.492-8.7a14.35,14.35,0,0,0-5.989-7.443c-.789-.493-1.873-1.775-1.7-2.218.468-1.134,1.848-.937,2.933-.764a10.563,10.563,0,0,1,7.763,5.5c3.7,6.26,9.513,7.123,15.552,4.855a1.5,1.5,0,0,0,.813-.789A13.384,13.384,0,0,1,53.038,87.395Z"/>
    </g>
  </g>
</svg>
