<svg xmlns="http://www.w3.org/2000/svg" width="14" height="14" fill="#000" viewBox="0 0 438.533 438.533"><path d="M396.283 130.188c-3.806-9.135-8.371-16.365-13.703-21.695l-89.078-89.081c-5.332-5.325-12.56-9.895-21.697-13.704C262.672 1.903 254.297 0 246.687 0H63.953C56.341 0 49.869 2.663 44.54 7.993c-5.33 5.327-7.994 11.799-7.994 19.414v383.719c0 7.617 2.664 14.089 7.994 19.417 5.33 5.325 11.801 7.991 19.414 7.991h310.633c7.611 0 14.079-2.666 19.407-7.991 5.328-5.332 7.994-11.8 7.994-19.417V155.313c.003-7.614-1.9-15.99-5.705-25.125zM255.816 38.826c5.517 1.903 9.418 3.999 11.704 6.28l89.366 89.366c2.279 2.286 4.374 6.186 6.276 11.706H255.816V38.826zm109.633 363.165H73.089V36.545h146.178v118.771c0 7.614 2.662 14.084 7.992 19.414 5.332 5.327 11.8 7.994 19.417 7.994h118.773v219.267z"/><path d="M319.77 292.355h-201c-2.663 0-4.853.855-6.567 2.566-1.709 1.711-2.568 3.901-2.568 6.563v18.274c0 2.67.856 4.859 2.568 6.57 1.715 1.711 3.905 2.567 6.567 2.567h201c2.663 0 4.854-.856 6.564-2.567s2.566-3.9 2.566-6.57v-18.274c0-2.662-.855-4.853-2.566-6.563-1.715-1.707-3.905-2.566-6.564-2.566zM112.202 221.831c-1.709 1.712-2.568 3.901-2.568 6.571v18.271c0 2.666.856 4.856 2.568 6.567 1.715 1.711 3.905 2.566 6.567 2.566h201c2.663 0 4.854-.855 6.564-2.566s2.566-3.901 2.566-6.567v-18.271c0-2.663-.855-4.854-2.566-6.571-1.715-1.709-3.905-2.564-6.564-2.564h-201c-2.662 0-4.852.855-6.567 2.564z"/></svg>