<svg version="1" viewBox="0 0 24 24" xmlns="http://www.w3.org/2000/svg" fill="#fff"><path d="M11.5 4C9 4 7 6 7 8.5S9 13 11.5 13 16 11 16 8.5 14 4 11.5 4zm.7 6.5h-1.4V7.8h-1l1.4-1.4h1.1v4.1z"/><path d="M21.8 14.1c-.2-.2-.5-.4-1.1-.5-.6-.1-3.8-.5-4.2-.6-.6-.1-1.3.2-2.2.8-.6.4-1.8 1.1-1.9 1.1.1.1.6.1.6.1h.1c1.1 0 1.9.9 1.9 1.9v.2c0 1.1-.9 1.9-1.9 1.9H11c-1.8 0-3.5-1.8-3.5-1.8s2.1.8 3.5.8h2c.6 0 1-.5 1-1s-.4-1-.9-1c-1.9-.2-2.7-1-2.7-1s-1.7-1.3-2.3-1.6c-2.1-1.2-6 1.3-6 1.3l2.6 5.7s1.3-.8 3.1-.1c1.2.5 1.9.9 3.1 1.3 1.7.6 2.3.5 3.4-.3 1-.7 5.8-4.5 6.5-5 1-.9 1.5-1.6 1-2.2zM16.5 3c-.8 0-1.6.3-2.2.8.6.4 1.2.9 1.6 1.4l.3-.3h.8v3.6c0 .5-.1 1-.2 1.5 1.8-.2 3.2-1.7 3.2-3.5C20 4.6 18.4 3 16.5 3z"/></svg>