<svg style="enable-background:new 0 0 512 512" viewBox="0 0 512 512" xmlns="http://www.w3.org/2000/svg"><path d="M469 256c0-117.453-95.586-212.996-212.993-213h-.014C138.515 43.004 43 138.62 43 256c0 117.584 95.719 213 213 213 117.466 0 213-95.602 213-213zM69.459 269h90.993c1.117 26.012 5.586 51.417 13.193 75.725h-82.22C79.074 321.908 71.34 296.247 69.459 269zm21.966-101.725h82.22c-7.607 24.308-12.075 49.713-13.193 75.725H69.459c1.881-27.247 9.615-52.908 21.966-75.725zM442.541 243h-90.993c-1.117-26.012-5.586-51.417-13.193-75.725h82.22c12.351 22.817 20.085 48.478 21.966 75.725zm-117.009 0H269v-75.725h41.968c8.386 24.162 13.333 49.602 14.564 75.725zM269 141.275V90.264a268.166 268.166 0 0 1 31.39 51.011H269zm-26 0h-31.39A268.135 268.135 0 0 1 243 90.264v51.011zm0 26V243h-56.532c1.231-26.123 6.178-51.563 14.564-75.725H243zM186.468 269H243v75.725h-41.968c-8.386-24.162-13.333-49.602-14.564-75.725zM243 370.725v51.011a268.166 268.166 0 0 1-31.39-51.011H243zm26 0h31.39A268.135 268.135 0 0 1 269 421.736v-51.011zm0-26V269h56.532c-1.231 26.123-6.178 51.563-14.564 75.725H269zM351.548 269h90.993a185.64 185.64 0 0 1-21.965 75.725h-82.22c7.606-24.308 12.074-49.713 13.192-75.725zm52.021-127.725H328.85c-10.45-24.849-24.351-48.251-41.446-69.624 46.972 7.977 88.034 33.522 116.165 69.624zM224.595 71.651C207.5 93.025 193.6 116.427 183.15 141.275h-74.718c28.13-36.102 69.192-61.647 116.163-69.624zM108.431 370.725h74.718c10.45 24.849 24.351 48.251 41.446 69.624-46.971-7.977-88.033-33.522-116.164-69.624zm178.974 69.624c17.095-21.374 30.995-44.776 41.446-69.624h74.718c-28.131 36.102-69.193 61.647-116.164 69.624z" style="fill:#fff"/></svg>