<svg xmlns="http://www.w3.org/2000/svg" viewBox="0 0 56 40"><defs><style>.cls-1{fill:#202884}</style></defs><g id="图层_2" data-name="图层 2"><g id="Icons"><g id="Communication"><g id="Users"><path class="cls-1" d="M11.6 13.57c.82 4.51 3.82 7.43 7.64 7.43s6.77-2.84 7.64-7.42c.14-.7.81-4.24.85-5.1a7.85 7.85 0 0 0-2.21-5.82 8.77 8.77 0 0 0-12.63.06 7.71 7.71 0 0 0-2.14 5.78c.05.87.77 4.65.85 5.07zm2.75-9.48a6.77 6.77 0 0 1 9.73 0 5.87 5.87 0 0 1 1.65 4.35c0 .55-.51 3.25-.82 4.81C24.38 16 22.61 19 19.24 19s-5.24-3.12-5.68-5.8c-.3-1.57-.78-4.27-.82-4.83a5.73 5.73 0 0 1 1.61-4.28zM31.46 25.72l-12.22-1.64-12.15 1.61c-3 .59-6.27 2.68-6.69 6L0 40h38.77l-.48-7.91c-.21-3.27-2.75-5.65-6.83-6.37zM1.85 38l.53-6.05c.29-2.33 2.84-3.86 5-4.29l11.85-1.56 11.91 1.59c1.48.26 4.94 1.23 5.15 4.52l.36 5.79zM33.93 17.46c.67 3.67 3.15 6 6.31 6s5.59-2.31 6.31-6c.11-.56.65-3.36.68-4.06a6.37 6.37 0 0 0-1.79-4.72A7.27 7.27 0 0 0 35 8.74a6.26 6.26 0 0 0-1.74 4.69c.03.69.56 3.49.67 4.03zm2.52-7.35a5.27 5.27 0 0 1 7.55 0 4.39 4.39 0 0 1 1.24 3.25c0 .4-.39 2.45-.65 3.77-.2 1-1.11 4.41-4.35 4.41-2.61 0-4-2.27-4.34-4.41-.24-1.23-.62-3.35-.65-3.78a4.28 4.28 0 0 1 1.19-3.24zM44 40h12l-.11-7.52c-.21-2.71-2.3-4.69-5.66-5.29L40.36 26l-.24 2 9.82 1.18c1.13.2 3.77.94 4 3.44l.24 5.38H44z"/></g></g></g></g></svg>