<svg xmlns="http://www.w3.org/2000/svg" viewBox="0 0 32.195 32.195"><path id="user-circle" d="M24.1 8a16.1 16.1 0 1 0 16.1 16.1A16.1 16.1 0 0 0 24.1 8zm0 2.077a14.023 14.023 0 0 1 11.962 21.334 6 6 0 0 0-3.7-3.18l-2.13-.609a8.309 8.309 0 1 0-12.272 0l-2.13.609a6.013 6.013 0 0 0-3.7 3.179A14.023 14.023 0 0 1 24.1 10.077zm0 18.175a6.231 6.231 0 1 1 6.231-6.231 6.231 6.231 0 0 1-6.231 6.231zm0 9.866a13.984 13.984 0 0 1-10.375-4.59 3.709 3.709 0 0 1 2.68-3.3l3.538-1.011a8.331 8.331 0 0 0 8.316 0l3.538 1.011a3.709 3.709 0 0 1 2.68 3.3 13.984 13.984 0 0 1-10.377 4.59z" transform="translate(-8 -8)" fill="#fff"/></svg>