<svg xmlns="http://www.w3.org/2000/svg" viewBox="0 0 22.56 30.02"><defs><style>.cls-1{fill:#e6002d;fill-rule:evenodd;}</style></defs><title>location</title><g id="图层_2" data-name="图层 2"><g id="图层_1-2" data-name="图层 1"><path class="cls-1" d="M22.56,11.2a16.46,16.46,0,0,1-1.41,6,34,34,0,0,1-4,6.71c-1.35,1.85-2.82,3.61-4.32,5.33a2,2,0,0,1-1.63.8,2.08,2.08,0,0,1-1.49-.81Q8.79,28.1,7.84,27a52.27,52.27,0,0,1-4.75-6.52A22.53,22.53,0,0,1,.4,14.28a11.08,11.08,0,0,1,1.38-9.1A11,11,0,0,1,10,.09a11.14,11.14,0,0,1,12.33,9c.13.7.17,1.42.25,2.14Zm-6.31,0a5,5,0,1,0-5,5,5,5,0,0,0,5-5Z"/></g></g></svg>