<svg xmlns="http://www.w3.org/2000/svg" height="242.227" width="239.133"><defs><clipPath id="a"><path d="M687.207 101.289C698.379 49.051 725.957 18.172 752.988 0l288.032.34c34.84 23.648 70.47 68.45 70.47 153.058v216.973s4.47 53.699 53.69 71.59c0 0 29.06 20.129-2.25 31.309 0 0-136.44 11.23-136.44-100.649V207.09s5.39-61.008-26.838-86.11v204.29s2.228 64.859 35.778 89.468c0 0 22.37 40.25-26.83 29.082 0 0-93.948-13.422-98.42-123.031l-2.149-209.891h-22.582l-2.129 209.891c-4.472 109.609-98.418 123.031-98.418 123.031-49.218 11.168-26.836-29.082-26.836-29.082 33.555-24.609 35.782-89.468 35.782-89.468V118.641c-32.246 22.808-26.836 88.449-26.836 88.449v165.531c0 111.879-136.446 100.649-136.446 100.649-31.328-11.18-2.246-31.309-2.246-31.309 49.219-17.891 53.692-71.59 53.692-71.59V218.582z"/></clipPath></defs><path d="M187.621 186.676c0 12.974-30.05 23.49-67.118 23.49-37.07 0-67.12-10.516-67.12-23.49 0-12.975 30.05-23.493 67.12-23.493 37.068 0 67.118 10.518 67.118 23.493" fill="#a5e2f4"/><g clip-path="url(#a)" transform="matrix(.13333 0 0 -.13333 0 242.227)"><path d="M1407.16 416.629c0-97.301-225.38-176.168-503.387-176.168-278.031 0-503.402 78.867-503.402 176.168 0 97.312 225.371 176.199 503.402 176.199 278.007 0 503.387-78.887 503.387-176.199" fill="#86c0ea"/></g><path d="M43.83 117.603l-1.937 6.75s-.503 2.44 1.794 2.872c2.402-.047 2.205-2.292 2.037-3.02l-1.893-6.602" fill="#a5e2f4"/><path d="M238.955 89.3l.177-.877c-19.69-3.938-39.896-3.976-52.12-3.468 2.008-7.235 2.612-15.56 2.612-24.844 0-13.315-5.003-23.968-13.123-32.072 1.419-4.582 3.315-14.755-1.893-27.779 0 0-9.188-2.917-29.97 10.992-8.14-2.035-16.804-3.04-25.482-3.04-9.547 0-19.192 1.216-28.19 3.684C69.518-2.737 60.051.26 60.051.26c-6.181 15.453-2.36 26.895-1.198 29.737-7.264 7.839-11.7 17.846-11.7 30.114 0 9.261 1.056 17.57 3.632 24.792-12.328-.448-31.798-.276-50.785 3.52l.176.877c19.1-3.82 38.691-3.952 50.945-3.49a45.325 45.325 0 0 0 1.908 4.347c-12.118.391-32.806 1.935-52.634 7.53l.243.858c19.984-5.636 40.854-7.14 52.854-7.508 7.24 13.495 21.513 22.212 46.906 24.948-3.604 2.422-7.28 6.54-8.77 13.506-4.912 2.349-20.459 8.083-29.787-7.961 0 0-5.221-9.547-15.215-10.295 0 0-9.695-.148-.67 6.042 0 0 6.488 3.058 10.963 14.544 0 0 5.839 19.594 34.016 13.307v20.24s-.596 7.159-7.159 9.544c0 0-3.878 2.685.3 4.175 0 0 18.192 1.492 18.192-13.42v-22.07s-.72-8.752 3.578-11.794v36.25s-.297 8.648-4.77 11.93c0 0-2.984 5.366 3.578 3.877 0 0 12.526-1.79 13.122-16.404l.285-36.684h3.01l.286 36.684c.597 14.614 13.123 16.404 13.123 16.404 6.56 1.49 3.577-3.877 3.577-3.877-4.473-3.282-4.77-11.93-4.77-11.93v-35.937c4.297 3.346 3.578 11.481 3.578 11.481v22.07c0 14.912 18.192 13.42 18.192 13.42 4.175-1.49.3-4.175.3-4.175-6.562-2.385-7.158-9.544-7.158-9.544v-28.93c0-11.28-4.751-17.255-9.396-20.408 27.081-2.685 40.076-11.43 46.064-25.015 11.861.325 33.208 1.77 53.628 7.53l.241-.858c-20.301-5.727-41.508-7.21-53.49-7.558a44.77 44.77 0 0 0 1.503-4.269c12.14-.517 32.438-.512 52.206 3.44" fill="#100f0d"/><path d="M163.136 59.483c5.833 5.284 9.245 11.665 9.245 18.54 0 32.1-23.93 32.97-53.446 32.97-29.52 0-53.448-4.445-53.448-32.97 0-6.83 3.365-13.17 9.126-18.434 9.608-8.77 25.872-4.126 44.322-4.126 18.376 0 34.578-4.691 44.201 4.02" fill="#f5c6aa"/><path d="M101.161 79.66c0 8.841-4.979 16.008-11.12 16.008-6.142 0-11.122-7.167-11.122-16.008s4.98-16.005 11.123-16.005c6.14 0 11.12 7.164 11.12 16.005" fill="#fff"/><path d="M97.594 79.86c0 5.893-3.322 10.67-7.414 10.67-4.097 0-7.414-4.777-7.414-10.67 0-5.895 3.317-10.673 7.414-10.673 4.092 0 7.414 4.778 7.414 10.673" fill="#ac4a48"/><path d="M160.824 79.66c0 8.841-4.98 16.008-11.123 16.008-6.141 0-11.12-7.167-11.12-16.008s4.979-16.005 11.12-16.005c6.143 0 11.123 7.164 11.123 16.005" fill="#fff"/><path d="M157.253 79.86c0 5.893-3.32 10.67-7.414 10.67-4.094 0-7.414-4.777-7.414-10.67 0-5.895 3.32-10.673 7.414-10.673 4.094 0 7.414 4.778 7.414 10.673M121.873 93.876a2.781 2.781 0 1 1-5.562 0 2.781 2.781 0 0 1 5.562 0M112.612 100.908a.895.895 0 0 1 1.686-.597 5.07 5.07 0 0 0 4.77 3.377 5.072 5.072 0 0 0 4.771-3.377.893.893 0 1 1 1.685.597 6.863 6.863 0 0 1-6.456 4.567 6.866 6.866 0 0 1-6.456-4.567" fill="#ac4a48"/><path d="M50.953 113.624c0 .742-.87 1.34-1.94 1.34-1.07 0-1.939-.598-1.939-1.34 0-.743.869-1.344 1.94-1.344 1.07 0 1.94.601 1.94 1.344M56.323 116.605c0 .742-.87 1.344-1.94 1.344-1.07 0-1.94-.602-1.94-1.344 0-.74.87-1.34 1.94-1.34 1.07 0 1.94.6 1.94 1.34M59.604 120.485c0 .74-.869 1.342-1.94 1.342-1.07 0-1.937-.602-1.937-1.342 0-.742.867-1.343 1.937-1.343 1.071 0 1.94.601 1.94 1.343M62.586 124.96c0 .742-.867 1.343-1.938 1.343s-1.94-.601-1.94-1.344c0-.742.869-1.343 1.94-1.343 1.07 0 1.938.601 1.938 1.343M65.869 129.137c0 .74-.869 1.34-1.94 1.34-1.07 0-1.94-.6-1.94-1.34 0-.743.87-1.344 1.94-1.344 1.071 0 1.94.601 1.94 1.344M70.344 132.715c0 .74-.869 1.343-1.94 1.343-1.07 0-1.938-.602-1.938-1.343 0-.74.867-1.341 1.938-1.341s1.94.601 1.94 1.34M76.608 135.103c0 .74-.868 1.34-1.939 1.34-1.072 0-1.94-.6-1.94-1.34 0-.743.868-1.345 1.94-1.345 1.07 0 1.939.602 1.939 1.345M82.842 135.103c0 .74-.868 1.34-1.938 1.34-1.072 0-1.94-.6-1.94-1.34 0-.743.868-1.345 1.94-1.345 1.07 0 1.938.602 1.938 1.345M89.17 134.064c0 .741-.868 1.343-1.938 1.343-1.072 0-1.94-.602-1.94-1.343 0-.743.868-1.344 1.94-1.344 1.07 0 1.938.601 1.938 1.344" fill="#c5ead4"/></svg>