<svg xmlns="http://www.w3.org/2000/svg" height="183.2" width="639.693"><path d="M115.283 16.377C112.581 8.06 103.647 3.507 95.33 6.21c-8.318 2.703-12.87 11.638-10.167 19.955l40.947 125.981c2.81 7.771 11.205 12.138 19.262 9.818 8.405-2.42 13.53-11.346 10.847-19.6L115.283 16.377" fill="#e7a213"/><path d="M51.836 36.992c-2.702-8.317-11.635-12.87-19.953-10.167-8.318 2.703-12.87 11.636-10.167 19.954l40.947 125.98c2.812 7.772 11.205 12.138 19.262 9.818 8.405-2.418 13.529-11.345 10.846-19.6L51.836 36.992" fill="#4dc088"/><path d="M166.823 120.715c8.317-2.703 12.869-11.636 10.166-19.954-2.702-8.318-11.636-12.87-19.953-10.167L31.055 131.54c-7.77 2.811-12.137 11.206-9.818 19.263 2.42 8.404 11.345 13.528 19.6 10.845l125.986-40.934" fill="#e10d63"/><path d="M57.312 156.297l30.11-9.783-9.784-30.113-30.113 9.786 9.787 30.11" fill="#3f2543"/><path d="M120.759 135.681l30.11-9.783-9.786-30.119-30.113 9.787 9.789 30.115" fill="#d01e25"/><path d="M146.208 57.268c8.317-2.703 12.87-11.636 10.167-19.953-2.703-8.319-11.636-12.871-19.955-10.168L10.44 68.094C2.669 70.905-1.697 79.3.622 87.357c2.42 8.404 11.345 13.528 19.6 10.846l125.986-40.935" fill="#7cd3dc"/><path d="M36.69 92.852l30.117-9.785-9.784-30.113-30.118 9.789 9.786 30.11" fill="#36987b"/><path d="M100.137 72.237l30.117-9.785-9.786-30.12-30.12 9.79 9.79 30.115" fill="#5a872d"/><path d="M294.613 49.539c5.571 2.43 5.978 4.254 1.62 12.56-4.456 8.51-5.57 9.017-11.041 6.787-6.89-2.937-15.701-5.166-21.375-5.166-9.318 0-15.498 3.344-15.498 8.408 0 16.715 53.386 7.7 53.386 43.357 0 17.931-15.398 29.884-38.496 29.884-12.156 0-27.149-4.052-37.481-9.32-5.165-2.633-5.47-4.153-1.013-12.662 3.85-7.496 5.065-8.307 10.637-5.977 8.812 3.85 19.956 6.787 27.453 6.787 8.508 0 14.182-3.444 14.182-8.509 0-16.208-54.298-8.51-54.298-43.053 0-18.336 15.296-30.594 38.191-30.594 10.739 0 24.312 3.242 33.733 7.498M337.67 7.193v132.909c0 2.026-2.127 4.153-5.166 4.153h-13.98c-3.039 0-5.167-2.127-5.167-4.153V7.193c0-6.584 1.824-7.192 12.156-7.192 11.752 0 12.158.811 12.158 7.192M372.619 115.08c0 6.788 5.774 11.346 14.486 11.346 10.535 0 20.058-5.065 25.63-13.675v-8.915c-5.572-2.128-12.36-3.343-18.438-3.343-12.966 0-21.678 6.179-21.678 14.587zm64.428-33.125v57.236c0 3.038-2.127 5.165-5.166 5.165h-13.778c-3.14 0-5.368-2.33-5.166-5.47l.203-6.18c-7.497 8.308-18.235 12.663-28.973 12.663-20.868 0-34.848-12.054-34.848-30.086 0-19.146 15.804-32.012 39.509-32.113 9.016 0 17.22 1.621 23.907 4.356v-6.585c0-10.535-8.308-16.816-22.388-16.816-6.584 0-14.69 2.634-21.172 6.382-4.964 2.837-6.18 2.635-11.548-5.368-5.268-8.004-5.067-9.523 0-12.764 9.724-6.282 22.893-10.334 35.05-10.334 27.25 0 44.37 14.79 44.37 39.914M531.87 49.741c5.065 2.937 5.269 4.558-.303 13.169-5.267 8.104-6.179 8.61-11.751 5.774-4.255-2.229-11.043-4.153-16.613-4.153-17.526 0-29.176 11.548-29.176 28.972 0 18.133 11.65 30.29 29.176 30.29 6.078 0 13.674-2.331 18.638-5.066 5.066-2.938 6.18-2.735 11.55 5.065 4.862 7.294 4.761 9.016.404 12.055-7.8 5.37-20.159 9.522-30.998 9.522-32.416 0-54.096-20.766-54.096-51.866 0-30.897 21.68-51.462 54.298-51.462 9.928 0 21.578 3.343 28.872 7.7M637.633 131.693c4.052 5.167 2.431 6.99-7.7 10.638-10.332 3.748-11.75 3.545-15.396-1.216l-28.973-38.697-12.967 12.56v25.124c0 2.026-2.126 4.153-5.166 4.153h-13.979c-3.04 0-5.168-2.127-5.168-4.153V7.193c0-6.584 1.824-7.192 12.157-7.192 11.751 0 12.156.811 12.156 7.192v75.572l39.71-38.089c4.357-4.155 6.788-3.85 14.588 1.317 8.612 5.571 9.218 7.09 5.065 11.142l-29.58 28.77 35.253 45.788" fill="#373d47"/></svg>