<svg viewBox="0 0 2629 1289" xmlns="http://www.w3.org/2000/svg"><defs><linearGradient x1="50%" y1="0%" x2="50%" y2="50%" id="a"><stop stop-color="#3A59F0" offset="0%"/><stop stop-color="#0F1741" stop-opacity="0" offset="100%"/></linearGradient><linearGradient x1="26.239%" y1="-2.01%" x2="26.239%" y2="74.22%" id="b"><stop stop-color="#3A59F0" offset="0%"/><stop stop-opacity="0" offset="100%"/></linearGradient><linearGradient x1="50%" y1="0%" x2="50%" y2="67.682%" id="c"><stop stop-color="#3A59F0" offset="0%"/><stop stop-color="#0F1741" stop-opacity="0" offset="100%"/></linearGradient><linearGradient x1="50%" y1="0%" x2="50%" y2="50%" id="d"><stop stop-color="#3A59F0" offset="0%"/><stop stop-color="#0F1741" stop-opacity=".253" offset="100%"/></linearGradient><linearGradient x1="50%" y1="0%" x2="50%" y2="37.293%" id="e"><stop stop-color="#3A59F0" offset="0%"/><stop stop-color="#243898" stop-opacity=".385" offset="70.245%"/><stop stop-color="#0F1741" stop-opacity=".253" offset="100%"/></linearGradient></defs><g fill="none" fill-rule="evenodd"><path fill="url(#a)" opacity=".05" d="M2113.285 203l515.285 297.5v595L2113.285 1393 1598 1095.5v-595z"/><path fill="url(#a)" opacity=".059" d="M1652.437 7l265.437 153.25v306.5L1652.437 620 1387 466.75v-306.5z"/><path fill="url(#a)" opacity=".02" d="M1137.918 0l200.918 116v232l-200.918 116L937 348V116z"/><path fill="url(#b)" opacity=".117" d="M1700.337 163l130.337 75.25v150.5L1700.337 464 1570 388.75v-150.5z"/><path fill="url(#c)" opacity=".116" d="M1307.386 148.605l324.5 187.35v374.7h-649v-374.7z"/><path fill="url(#d)" opacity=".061" d="M477.613 186l477.613 275.75v551.5L477.613 1289 0 1013.25v-551.5z"/><path fill="url(#e)" opacity=".075" d="M814.042 57l213.042 123v246L814.042 549 601 426V180z"/></g></svg>